<svg xmlns="http://www.w3.org/2000/svg" viewBox="0 0 147.34051 195.11448">
  <title>arrow</title>
  <g id="Layer_2" data-name="Layer 2">
    <g id="Layer_1-2" data-name="Layer 1">
      <path d="M53.2812,97.62092c8.9958,8.97323,17.61329,17.55535,26.21566,26.15261q32.845,32.8255,65.67864,65.66233c.35113.35105.84591.65085,1.01118,1.07649.36512.94031,1.04278,2.18582.7044,2.86243a3.61818,3.61818,0,0,1-2.66942,1.6179c-4.71239.16673-9.4336.08763-14.15171.089-10.3472.0031-20.6946-.02907-31.04145.03258a5.89187,5.89187,0,0,1-4.58555-1.87817q-46.21576-46.31937-92.5089-92.56156c-2.6029-2.60324-2.58418-3.42285.09055-6.09774q46.26716-46.27,92.51386-92.56049A6.21949,6.21949,0,0,1,99.3366.00008C113.98745.06025,128.639-.0083,143.28927.10122A5.03511,5.03511,0,0,1,146.995,1.725c1.007,1.523-.39375,2.8022-1.56375,3.9701q-41.65294,41.57777-83.26,83.20141C59.31567,91.75024,56.40954,94.55339,53.2812,97.62092Zm-46.90512.02416c.61953.68866,1.03475,1.19509,1.49553,1.656q44.60409,44.6111,89.26106,89.16916a5.75114,5.75114,0,0,0,3.65482,1.49022c11.67192.109,23.34529.06453,35.01824.05093a17.65875,17.65875,0,0,0,1.83562-.18773l.74848-.97684a9.92919,9.92919,0,0,1-2.40013-1.32489Q92.663,144.26969,49.39432,100.95942c-2.98893-2.9896-2.984-3.58759.04472-6.61659Q92.72729,51.05045,136.03771,7.78022a13.23345,13.23345,0,0,1,2.48555-1.57217l-.66458-.86578c-.70308-.04155-1.40614-.11894-2.10923-.1193-11.42467-.0058-22.84965.04315-34.27366-.043A6.04489,6.04489,0,0,0,96.72,7.14329Q52.52211,51.45767,8.23608,95.6841C7.65781,96.26241,7.10928,96.87046,6.37608,97.64508Z"/>
    </g>
  </g>
</svg>
