<svg xmlns="http://www.w3.org/2000/svg" viewBox="0 0 302.03067 249.42602">
  <title>bathtub</title>
  <g id="Layer_2" data-name="Layer 2">
    <g id="Layer_1-2" data-name="Layer 1">
      <path d="M223.7334,0c5.17236,3.3426,5.23878,3.76666,2.76614,9.54911-1.27054,2.97127-2.35255,6.08746-3.41733,9.19762a15.19692,15.19692,0,0,0,.67632,11.8206c1.35454,2.89429,2.23265,6.19025,3.70464,8.96386,8.52111,16.05593.75747,35.55349-8.85413,44.54348q-1.57716-2.72142-3.16987-5.4696c1.42721-2.0921,2.67344-3.982,3.97076-5.81035,8.6328-12.16673,6.50463-24.50055.10329-36.61766-4.64737-8.797-3.4621-17.26479.0404-25.8799Q221.64924,5.14259,223.7334,0Z"/>
      <g>
        <path d="M32.75286,109.196c.53762-4.35035.75939-8.29088,1.54836-12.11438A23.89246,23.89246,0,0,1,55.26381,78.11624a276.77333,276.77333,0,0,1,58.82563.12253c9.26763,1.03786,18.61548,11.4304,19.43179,21.487.24425,3.00909.56052,6.01234.87177,9.31516,1.162.05434,2.24323.14889,3.3245.14915q73.13768.0174,146.27536.01542c10.71327-.001,18.02793,7.20422,18.03021,17.8523q.0101,47.18559-.00253,94.37117a27.74929,27.74929,0,0,1-27.99842,27.98968q-122.851.01542-245.70209,0C12.20293,249.4169.03043,237.23177.0169,221.05467q-.03961-47.35408-.00121-94.70822a17.03788,17.03788,0,0,1,17.06589-17.14637C22.23267,109.17709,27.384,109.196,32.75286,109.196ZM291.2413,136.0545c0-2.9858,0-5.66295,0-8.3401.00018-6.78965-.9338-7.72057-7.77787-7.7207q-110.51108-.00228-221.02217-.00188c-15.1616.00009-30.32325.02552-45.48477-.00791-2.95676-.00652-5.69291.53468-5.98033,3.96837-.3324,3.971-.07735,7.99113-.07735,12.10222Zm-.18065,86.61863H10.95791c-.09,9.74107,6.41846,15.95274,16.64112,15.95545q90.79746.024,181.59491.00377c21.8992-.00025,43.79853.04314,65.69759-.0115C284.78482,238.59618,291.2465,232.18044,291.06065,222.67313ZM59.576,147.12217v64.29145h53.51957V147.12217Zm118.1748,64.40532V147.23137H124.239v64.29612Zm64.7145-.00235v-64.2983H188.952v64.2983ZM48.40447,147.19705H11.06933v64.28981H48.40447Zm242.68042-.002H253.74976v64.29385h37.33513ZM123.57551,109.02673c-.43072-3.74911-.30247-7.44749-1.3656-10.764-1.61687-5.044-5.02574-8.76268-10.73406-9.39026a267.63717,267.63717,0,0,0-55.4124-.01636c-5.75344.562-9.19121,4.19937-10.86678,9.20721-1.13339,3.38742-1.03627,7.18657-1.50983,10.96339Z"/>
        <path d="M113.2684,41.67108c.01776,15.78413-13.92512,29.77457-29.68,29.78121-15.55082.00653-29.59267-13.96825-29.63394-29.4924-.04195-15.78156,13.882-29.79128,29.6393-29.82177A29.82823,29.82823,0,0,1,113.2684,41.67108ZM83.58667,22.92272C72.482,22.9364,64.74946,30.665,64.739,41.76088c-.01054,11.12887,7.67834,18.87193,18.77447,18.90678,11.26.03537,19.02715-7.76519,18.97053-19.05206A18.6819,18.6819,0,0,0,83.58667,22.92272Z"/>
      </g>
      <path d="M248.84121,18.42563c3.99733,2.58324,4.04866,2.911,2.13774,7.37978-.9819,2.29627-1.81811,4.70454-2.641,7.10814a11.74459,11.74459,0,0,0,.52268,9.13525c1.04683,2.23677,1.72545,4.784,2.863,6.92748,6.58531,12.40841.58539,27.47659-6.84268,34.42428l-2.44976-4.22705c1.103-1.61682,2.0661-3.07735,3.0687-4.49037,6.67163-9.40274,5.02693-18.93462.07983-28.299-3.5916-6.79853-2.6756-13.34265.03121-20.00061Q247.23053,22.39994,248.84121,18.42563Z"/>
    </g>
  </g>
</svg>
