<svg xmlns="http://www.w3.org/2000/svg" viewBox="0 0 222.98177 226.85027">
  <defs>
    <style>
      .cls-1 {
        fill: #fff;
      }
    </style>
  </defs>
  <title>calendar</title>
  <g id="Layer_2" data-name="Layer 2">
    <g id="Layer_1-2" data-name="Layer 1">
      <g>
        <path class="cls-1" d="M222.98177,226.85027H0V0H222.98177ZM38.5404,14.342H36.97974q-11.18293,0-22.36589.00185C6.28243,14.35355.21827,20.52237.21792,28.99332Q.2142,120.52865.218,212.064c.00036,8.42119,6.01841,14.57593,14.32429,14.57731q96.95673.0162,193.91344.00007c8.31768-.00137,14.319-6.13024,14.31962-14.57063q.00721-91.53543-.002-183.07088a15.254,15.254,0,0,0-.11745-2.30229,13.9829,13.9829,0,0,0-14.16807-12.32568q-11.29648-.00672-22.593-.001h-1.22348a44.99265,44.99265,0,0,0-.4411-5.83107A10.34667,10.34667,0,0,0,173.10669.259a10.54593,10.54593,0,0,0-9.40719,10.51174c-.01961,1.14526-.00286,2.29117-.00286,3.50245H59.29037c0-1.32648.03572-2.58868-.00615-3.8482a10.37414,10.37414,0,0,0-20.73051-.40742C38.46446,11.39475,38.5404,12.783,38.5404,14.342Z"/>
        <path d="M38.5404,14.342c0-1.559-.07594-2.94728.01331-4.32448a10.37414,10.37414,0,0,1,20.73051.40742c.04187,1.25952.00615,2.52172.00615,3.8482H163.69664c0-1.21128-.01675-2.35719.00286-3.50245A10.54593,10.54593,0,0,1,173.10669.259a10.34667,10.34667,0,0,1,11.12358,8.2808,44.99265,44.99265,0,0,1,.4411,5.83107h1.22348q11.29648,0,22.593.001a13.9829,13.9829,0,0,1,14.16807,12.32568,15.254,15.254,0,0,1,.11745,2.30229q.00758,91.53545.002,183.07088c-.00066,8.44039-6.00194,14.56926-14.31962,14.57063q-96.95671.01609-193.91344-.00007C6.23643,226.63991.21838,220.48517.218,212.064q-.004-91.53534-.0001-183.07066c.00035-8.471,6.06451-14.63977,14.39593-14.64944q11.18294-.013,22.36589-.00185ZM7.20727,60.34589v1.78217q0,74.55477.00067,149.10954c0,.53892-.01381,1.07936.01955,1.61648a6.55244,6.55244,0,0,0,4.07355,6.02085,10.03052,10.03052,0,0,0,3.86363.6441q96.32988.04421,192.65978.02447c.52954,0,1.05982-.00711,1.5885-.03518a6.47349,6.47349,0,0,0,4.00624-1.695c1.94383-1.705,2.42949-3.95028,2.42879-6.44328q-.02114-74.728-.0107-149.456c0-1.56688-.00149-1.56794-1.51658-1.56794Q111.51961,60.3458,8.71854,60.34589ZM163.64611,21.5203H59.28846c0,.47391.00054.88653-.00009,1.29914-.00677,4.46568.0604,8.93308-.03989,13.39658a10.43694,10.43694,0,0,1-9.80067,9.97621C43.248,46.42474,38.52723,41.774,38.45337,35.29474c-.0474-4.15723-.00965-8.31548-.01007-12.47327,0-.41266,0-.82531,0-1.30779-.48515-.02236-.85369-.054-1.22224-.05416q-11.239-.00425-22.4779,0c-4.73685.00476-7.55328,2.86131-7.55948,7.67539Q7.169,40.56882,7.184,52.00276c.00022.40438.04559.80874.07063,1.2246H215.75375l0-1.201q0-11.43395-.00153-22.86787c-.00337-4.822-2.81074-7.69376-7.53537-7.69886q-11.29572-.01219-22.59143.00069c-.36069.00019-.72134.04315-1.16285.07136,0,.44475,0,.78616,0,1.12757-.00011,4.11929.08543,8.24134-.04232,12.35653a14.31507,14.31507,0,0,1-.92679,4.92348,10.13184,10.13184,0,0,1-11.42635,6.064,10.372,10.372,0,0,1-8.37973-9.97527c-.10067-3.11506-.03471-6.23575-.04071-9.35392C163.64343,24.98742,163.64611,23.3008,163.64611,21.5203ZM45.42072,23.21051c0,4.00285-.0076,8.00572.00291,12.00854.00608,2.31435,1.40432,3.869,3.45492,3.88111,2.05076.01215,3.50748-1.53377,3.51234-3.83069q.02553-12.06625-.0153-24.13251a4.82929,4.82929,0,0,0-.50726-2.09064,3.37381,3.37381,0,0,0-3.89858-1.63148,3.52513,3.52513,0,0,0-2.53822,3.44075C45.40446,14.97373,45.42266,19.09218,45.42072,23.21051Zm132.14.0695c0-4.07981.01436-8.15969-.00585-12.2394a3.48409,3.48409,0,1,0-6.9566-.08839c-.0307,8.15949-.043,16.31946.03155,24.47836a4.62179,4.62179,0,0,0,1.00379,2.58742,3.06719,3.06719,0,0,0,3.62312.87927,3.44054,3.44054,0,0,0,2.2948-3.37788C177.57514,31.43973,177.55938,27.35982,177.56075,23.28Z"/>
        <path d="M48.90023,152.31468c-3.33052.00012-6.66108.0109-9.99153-.00335-2.5684-.011-3.929-1.39591-3.93219-3.99q-.01014-8.37447,0-16.749c.0031-2.58731,1.392-4.01876,3.92-4.02228q9.99153-.014,19.98308-.00021c2.52877.00332,3.92553,1.41858,3.933,4.01248q.024,8.37444.00038,16.749c-.00708,2.62415-1.35345,3.98856-3.92114,3.9997C55.56131,152.32548,52.23074,152.31457,48.90023,152.31468Zm6.9256-17.586H42.04858v10.45922H55.82583Z"/>
        <path d="M174.12142,152.3147c-3.3269,0-6.65382.00892-9.98067-.00288-2.63382-.00936-3.968-1.36713-3.97327-4.05762q-.01628-8.30766.00007-16.61536c.00564-2.71969,1.38076-4.08871,4.0792-4.09052q9.86727-.00663,19.73453.00051c2.62136.00233,4.02042,1.40174,4.02382,4.02726q.0108,8.36536.0002,16.73073c-.00311,2.61085-1.34363,3.99194-3.90321,4.00407C180.77526,152.32664,177.44831,152.31473,174.12142,152.3147Zm6.8248-7.09983V134.73905H167.22648v10.47582Z"/>
        <path d="M48.92791,166.50591c3.33036-.00082,6.6608-.01507,9.99106.00382,2.52172.01431,3.88171,1.36636,3.89156,3.91222q.03262,8.43173.00119,16.86367c-.00837,2.58714-1.41113,3.97551-3.95931,3.97732q-9.9911.007-19.9822-.00079a3.58409,3.58409,0,0,1-3.89267-3.93523q-.01437-8.48959.00107-16.97923a3.49184,3.49184,0,0,1,3.73119-3.83393C42.11564,166.48638,45.52186,166.50673,48.92791,166.50591Zm6.895,7.12066H42.011v10.433H55.82292Z"/>
        <path d="M174.11,88.67623c3.36479,0,6.72962-.00944,10.09437.00322a3.5106,3.5106,0,0,1,3.79915,3.87412q.01751,8.481.00011,16.962a3.55493,3.55493,0,0,1-3.89832,3.90725q-10.03767.00983-20.07535-.00034a3.522,3.522,0,0,1-3.85668-3.83379q-.03988-8.53849-.00036-17.0773a3.49587,3.49587,0,0,1,3.84271-3.83259C167.38042,88.6685,170.74525,88.6762,174.11,88.67623Zm-6.94615,17.57152h13.80729V95.81036H167.16389Z"/>
        <path d="M48.92745,88.67624c3.3685,0,6.737-.00985,10.10549.00342a3.47192,3.47192,0,0,1,3.7738,3.791q.046,8.54781.00179,17.096a3.52968,3.52968,0,0,1-3.84271,3.85558q-10.04868.01193-20.09739.00039a3.56188,3.56188,0,0,1-3.891-3.92632q-.01435-8.43252-.00056-16.8651c.00356-2.53608,1.37465-3.94428,3.84514-3.95229C42.19045,88.668,45.559,88.67622,48.92745,88.67624Zm-6.91727,17.55559H55.78609V95.78463H42.01018Z"/>
        <path d="M90.66524,88.67637c3.36845.00023,6.737-.0096,10.10536.00359a3.44446,3.44446,0,0,1,3.74786,3.79113q.03285,8.54785.00117,17.09593a3.49191,3.49191,0,0,1-3.8176,3.85538q-10.0486.01133-20.09721.00031c-2.48492-.00252-3.86591-1.40431-3.86919-3.92519q-.01094-8.43247-.00039-16.865c.00295-2.60263,1.34675-3.94921,3.93817-3.9547C84.004,88.67079,87.33463,88.67613,90.66524,88.67637ZM83.73778,106.246H97.54033V95.79279H83.73778Z"/>
        <path d="M90.61068,166.50532c3.33034-.00054,6.66074-.01244,9.991.00327,2.609.01231,3.91438,1.32983,3.92054,3.97111q.01967,8.43178-.0013,16.86363c-.00732,2.53567-1.388,3.9169-3.87464,3.91915q-9.991.00907-19.98208.00039c-2.54689-.00188-3.92625-1.40284-3.929-3.99264q-.009-8.43181.00054-16.86361c.00334-2.477,1.34627-3.878,3.77043-3.89487C83.87418,166.48824,87.24248,166.50585,90.61068,166.50532Zm6.94965,7.05031c-4.50989,0-8.88492-.0118-13.25932.03607-.21135.00232-.58475.52243-.59724.81408-.06241,1.45712-.02972,2.91848-.03,4.37834q-.00045,2.62866-.00007,5.26122H97.56033Z"/>
        <path d="M90.58618,152.31489c-3.29264,0-6.58531.00882-9.87793-.00279-2.66164-.00939-3.97158-1.34557-3.97366-4.03808q-.0065-8.37443.00082-16.74886c.003-2.57868,1.38379-3.97272,3.94763-3.97565q9.93469-.01138,19.86942-.00028c2.62135.00259,3.96577,1.37464,3.9707,4.06481q.01527,8.31664.00046,16.63335c-.00462,2.76852-1.29968,4.05921-4.0595,4.06569C97.1715,152.3208,93.87883,152.31489,90.58618,152.31489ZM83.74763,134.7047v10.508H97.52587v-10.508Z"/>
        <path d="M132.40867,88.67658c3.36828-.00008,6.73659-.01124,10.10482.00374a3.46186,3.46186,0,0,1,3.73119,3.81368q.01665,8.54749,0,17.09505a3.49818,3.49818,0,0,1-3.73093,3.83155q-10.16155.01787-20.32319.00037a3.46484,3.46484,0,0,1-3.72519-3.71817q-.03807-8.66286,0-17.326a3.42255,3.42255,0,0,1,3.7249-3.69657C125.59638,88.66632,129.00255,88.67665,132.40867,88.67658Zm6.93861,17.57955c0-3.243-.02872-6.35093.01847-9.45764.0132-.86834-.2504-1.11261-1.09311-1.10381-3.92848.041-7.8576.01633-11.78649.0215-.32828.00043-.65651.048-1.02513.07688v10.46307Z"/>
        <path d="M132.37856,191.26453q-4.99518,0-9.99036-.00144c-2.54485-.00453-3.9234-1.39309-3.929-3.99452q-.01794-8.37344-.00059-16.74694c.00508-2.69686,1.30962-4.00957,3.99346-4.01363q9.93357-.015,19.86716.00117c2.59556.00479,3.92411,1.35837,3.92719,3.96828q.01,8.43122-.00062,16.86246c-.00366,2.51386-1.39565,3.91706-3.87691,3.92273C139.03881,191.27024,135.70867,191.26452,132.37856,191.26453Zm-6.93575-7.18726H139.273V173.65265h-13.8302Z"/>
        <path d="M132.32982,152.31457c-3.33028,0-6.6606.01159-9.99081-.00374-2.5232-.01162-3.87216-1.362-3.87871-3.90467q-.0218-8.48929.00128-16.97872a3.5137,3.5137,0,0,1,3.80986-3.87592q10.04756-.01837,20.09517-.001c2.48574.00371,3.8755,1.41653,3.87914,3.92835q.01226,8.48934-.00048,16.97873c-.00417,2.46085-1.36,3.83738-3.81113,3.852C139.06613,152.32959,135.69793,152.31454,132.32982,152.31457Zm-6.85-17.59459v10.476h13.80038V134.72Z"/>
      </g>
    </g>
  </g>
</svg>
