<svg xmlns="http://www.w3.org/2000/svg" viewBox="0 0 303.79096 288.19984">
  <title>court</title>
  <g id="Layer_2" data-name="Layer 2">
    <g id="Layer_1-2" data-name="Layer 1">
      <path d="M92.67276,62.64176A59.42025,59.42025,0,0,1,154.17092.03908c32.86884,1.174,58.88638,29.66009,56.81929,62.59131,1.06035,0,2.09607-.00008,3.13179,0q29.3313.00252,58.66261.001c18.15344-.015,30.99931,12.73344,31.00149,30.83842q.00983,81.89084.00069,163.78167c-.00185,18.31709-12.79751,30.95329-31.17423,30.94831q-120.60043-.03264-241.20085-.0132C12.5923,288.18577.00358,275.63441.00258,256.87405Q-.00177,175.28191.00332,93.68974C.005,75.34037,12.69479,62.66345,31.094,62.64611q29.03349-.02735,58.067-.00435ZM157.03737,140.839c.75941.16524,1.13825.244,1.51539.33026,16.85333,3.854,28.31833,17.56987,28.392,33.96518.07444,16.56429-11.03584,30.40057-27.8444,34.34338-2.38261.55889-2.08432,1.88906-2.08434,3.43594q-.0002,30.81561.00845,61.63121c.00018,1.059,0,2.1179,0,3.49994,1.33508,0,2.30437.00025,3.27364-.00006q9.5277-.00291,19.05539-.00582,47.19192-.00471,94.38383-.02314c10.2295-.01407,18.49954-6.71818,19.55473-16.75944.74986-7.1358.14539-14.4139.14539-21.97048-1.16433,0-2.22479-.00024-3.28525.00005q-19.20434.00519-38.40869.009c-8.22483-.00138-11.94817-3.76345-11.94706-12.03766q.00706-51.95614.01121-103.91229c.0011-7.92945,3.7364-11.70041,11.61482-11.70512q19.20436-.01148,38.40871-.00071c1.16775,0,2.3355,0,3.80028,0,0-6.46937.03855-12.5958-.00828-18.72158-.08891-11.62716-8.16132-19.9658-19.82294-20.04751-20.64248-.14468-41.28666-.0318-61.93-.07206a2.514,2.514,0,0,0-2.91249,2.10788q-11.62243,36.91325-49.89245,43.07207c-.75546.123-1.92694,1.18938-1.9401,1.83556C156.98409,126.7454,157.03737,133.68112,157.03737,140.839ZM146.61925,278.03744c.0649-1.25951.15754-2.2232.15785-3.18691.00655-20.24671-.06852-40.49394.07681-60.7396.02209-3.07732-.69413-4.33023-3.87173-5.11276a34.68573,34.68573,0,0,1-1.756-66.73552c1.76763-.56124,3.57529-.99633,5.54419-1.53951,0-7.0432.05365-13.97872-.08825-20.91024-.01327-.64809-1.19426-1.7265-1.94782-1.83944-25.67955-3.84872-42.05077-18.48218-49.89028-42.97621-.52341-1.63533-1.14362-2.20847-2.83193-2.20457-20.74282.048-41.48636-.05728-62.22849.0724-10.09189.06309-18.04989,6.53133-19.1999,16.423-.83882,7.215-.16409,14.60593-.16409,22.33007,1.30909,0,2.56537,0,3.82166,0,12.803.00055,25.6061-.01977,38.40906.00961,7.51039.01723,11.31547,3.84824,11.31871,11.399q.02241,52.25445.00124,104.50888c-.00357,8.04624-3.77036,11.72783-11.92416,11.73777q-19.20455.0234-38.40912.01373c-1.06074.00029-2.12149,0-3.48375,0,0,5.862.01857,11.39366-.00365,16.92519-.0557,13.86936,7.85253,21.83611,21.68744,21.83431q55.827-.00725,111.654-.00921C144.458,278.03736,145.425,278.03744,146.61925,278.03744ZM10.33217,141.03368c5.89281,0,11.4459-.03725,16.99826.01008,5.98648.051,10.17313,4.12637,10.19246,10.071q.0789,24.267.00373,48.53439c-.01514,5.88575-3.94439,9.96716-9.80385,10.14-4.76008.14043-9.52735.029-14.29131.05248-1.04346.00515-2.08643.1088-3.11739.16641v18.9166H53.68323V121.82725H10.33217Zm239.76317-19.02809V228.9543H293.511V209.98984c-1.1726-.05508-2.23587-.14323-3.29955-.14845-4.76161-.02334-9.52723.09488-14.284-.06216a9.62324,9.62324,0,0,1-9.65711-9.6743q-.097-24.70138.01016-49.40328a9.65917,9.65917,0,0,1,9.68981-9.64569c2.18031-.07018,4.36453-.02128,6.547-.02243,3.631-.00193,7.262-.00051,10.86562-.00051V122.00559Zm-98.14228,78.207a24.80074,24.80074,0,1,0-24.93769-24.65589A24.84011,24.84011,0,0,0,151.95306,200.21257Zm-.03323-158.69179c-5.89636,4.33139-11.58846,8.44937-17.17432,12.70675a3.00456,3.00456,0,0,0-.81585,2.60631c1.86616,6.35388,3.8308,12.68222,5.96889,18.949a3.54356,3.54356,0,0,0,2.595,1.92852c6.13547.17853,12.27861.07188,18.4184.13808,1.59281.01717,2.50423-.40072,3.01024-2.08189,1.90869-6.34167,4.02445-12.62119,5.91538-18.96787a2.99239,2.99239,0,0,0-.76961-2.6106C163.481,49.93554,157.78649,45.82315,151.91983,41.52078Zm45.411-1.1913c-8.21907-17.20449-21.40006-26.89769-40.26937-29.7093,0,7.2635-.03225,14.16916.0545,21.07334a2.90956,2.90956,0,0,0,1.21824,1.83927q8.92118,6.66578,17.9436,13.19487a3.05514,3.05514,0,0,0,2.36523.5452C184.77438,45.08223,190.85758,42.75693,197.33083,40.32948Zm-50.551-29.44079c-16.95438,1.042-35.13157,14.536-39.93072,29.46593,6.354,2.17932,12.69662,4.41075,19.094,6.47206a3.65755,3.65755,0,0,0,2.6391-.79207c3.24486-2.27681,6.17588-5.10316,9.63791-6.94675,7.01636-3.73635,9.95475-9.02986,8.66014-17.00061C146.28946,18.44931,146.77987,14.63575,146.77987,10.88869ZM293.4206,199.6403V151.4145H276.53345v48.2258ZM10.32239,151.2098v48.25107H27.29075V151.2098ZM103.92351,50.15993C99.5203,65.15167,107.685,87.9239,120.50984,96.4154c3.3-4.2923,6.66092-8.56534,9.871-12.94879a3.51676,3.51676,0,0,0,.23047-2.69968c-2.2212-7.40148-4.49975-14.787-6.89947-22.13215a4.23628,4.23628,0,0,0-2.16509-2.42561C115.78052,54.10257,109.94018,52.19874,103.92351,50.15993Zm95.88869.14021c-6.20811,2.31145-12.42147,4.58835-18.59022,6.98036a3.02339,3.02339,0,0,0-1.31654,1.79849q-3.39915,10.45311-6.6461,20.95505a3.19067,3.19067,0,0,0,.16658,2.424C176.71421,87.15784,180.125,91.772,183.499,96.4127,196.64376,86.55561,204.47373,64.46249,199.8122,50.30014Zm-24.81409,51.78967c-3.18238-4.39628-6.304-8.84044-9.61244-13.14088a4.07139,4.07139,0,0,0-2.8535-.94481c-5.65-.08648-11.3233.258-16.94626-.14114-4.23212-.30042-7.0233.96152-9.282,4.56648-2.1675,3.45947-4.92177,6.55131-7.43878,9.83155C142.26955,110.51316,163.4202,110.36517,174.99811,102.08981Z"/>
    </g>
  </g>
</svg>
