<svg xmlns="http://www.w3.org/2000/svg" viewBox="0 0 220.89095 150.13168">
  <title>email</title>
  <g id="Layer_2" data-name="Layer 2">
    <g id="Layer_1-2" data-name="Layer 1">
      <path d="M110.62066,150.11346c-16.57873,0-33.15765.04923-49.73614-.01417-15.766-.0603-31.53282-.40713-47.2966-.28417-6.61147.05158-10.535-3.17152-13.2138-8.6617A4.95358,4.95358,0,0,1,0,139.04Q.02553,81.16258.10087,23.28517c.0058-3.95886.40239-7.925.2557-11.87437C.13449,5.43159,7.46794.03924,12.23333.06934,34.75141.21157,57.27136.026,79.79067.01371q65.02326-.03535,130.0466-.00924c4.62631,0,10.49442,5.74385,10.60762,10.65259.235,10.19056.41572,20.38467.43008,30.57759q.05982,42.47313-.05126,84.94645c-.00774,4.39833-.169,8.79891-.365,13.19372-.23226,5.20617-6.07245,10.72426-11.246,10.72454q-49.296.00272-98.592.00094ZM18.50741,8.58106c.49853.61473.73015.96138,1.02013,1.24922Q55.04622,45.08576,90.57163,80.33443a24.89483,24.89483,0,0,0,17.43989,7.69007c6.6257.1717,13.13152-.20042,18.58576-4.53579a102.11592,102.11592,0,0,0,8.31238-7.51608Q167.931,43.19939,200.87917,10.35242c.47358-.47146.87934-1.011,1.53427-1.77136ZM15.52736,141.25892H205.62268L144.01444,79.65073c-2.95975,2.69476-6.00334,5.672-9.2608,8.39313-9.87847,8.25209-21.22566,10.35268-33.623,7.69153C94.3143,94.27221,88.808,90.44453,83.71835,85.91578c-2.34216-2.08406-4.60924-4.25253-6.919-6.39067Q45.9479,110.60913,15.52736,141.25892ZM8.80534,11.86018V134.96385q30.9449-30.9446,61.55135-61.55075Zm203.35428-.35083q-31.269,31.42839-61.47823,61.79164l61.47823,61.51651Z"/>
    </g>
  </g>
</svg>
