<svg xmlns="http://www.w3.org/2000/svg" viewBox="0 0 165.17773 165.24363">
  <defs>
    <style>
      .cls-1 {
        stroke: #000;
        stroke-miterlimit: 10;
        stroke-width: 4px;
      }
    </style>
  </defs>
  <title>fb</title>
  <g id="Layer_2" data-name="Layer 2">
    <g id="Layer_1-2" data-name="Layer 1">
      <path class="cls-1" d="M163.17773,25.70531V133.87347a5.54978,5.54978,0,0,0-.55365,1.26115c-2.34813,14.10519-9.06315,24.50087-23.8021,28.109H109.45182c.05048-1.42757.14426-2.85511.14491-4.28271q.01419-31.48938.00655-62.97875V91.30426h16.92446V77.0971H109.3448c.316-5.42873.12146-10.59013,1.016-15.55535,1.52542-8.46726,7.672-13.04,16.30272-12.92318,1.87058.02531,3.73926.19082,5.84573.30454.86586-5.26853,1.70915-10.39965,2.61121-15.88835-2.39441-.44176-4.57744-.90145-6.7789-1.24186C106.5828,28.42836,89.65,41.7292,87.90743,63.699c-.345,4.34922-.04973,8.74921-.04973,13.5812H74.61314V91.47431H87.41432c.06716,1.14094.156,1.94867.15625,2.75643q.01113,33.09963-.00832,66.19924a24.551,24.551,0,0,1-.31714,2.81365H32.80285c-4.59717-1.82934-9.54942-3.074-13.71943-5.60673C9.684,151.92819,4.20475,143.208,2,132.44078V26.42165C3.82448,22.47093,5.01278,18.032,7.597,14.66428,14.37955,5.82522,24.19992,2.28046,34.91946,2.1957q50.76378-.40137,101.53267-.03689c13.523.08193,22.73707,7.412,25.73881,19.43566C162.53226,22.96165,162.84938,24.33488,163.17773,25.70531Zm-48.72684,132.754c7.89436,0,15.512.22135,23.10946-.074,5.52232-.21467,9.91043-3.154,13.43413-7.32114a32.55752,32.55752,0,0,0,7.56643-21.49416q.18825-49.95071-.00516-99.90236c-.05428-11.21684-5.06-18.71965-13.91723-21.48623A35.06641,35.06641,0,0,0,134.4396,6.68533c-32.46531-.10878-64.93193-.17788-97.39594.05469A42.98813,42.98813,0,0,0,22.41552,9.46467C12.91044,13.06644,6.60716,19.7356,6.58243,30.59536c-.07448,32.70422-.12664,65.40918.02385,98.11288.06283,13.65359,12.01078,28.33534,25.34934,29.24178,16.73415,1.13722,33.59393.42605,50.39952.5035.09733.00045.19526-.12872.3736-.25408V95.82759H70.12137V72.40633H82.914C82.648,56.94392,85.97362,42.99465,98.867,33.76056c12.752-9.1328,26.98093-8.05149,41.45659-4.01286-1.47081,8.78987-2.85135,17.04021-4.2192,25.21476-6.44456-1.61627-12.50257-3.93-17.765,1.08593-4.71553,4.49461-4.28232,10.40434-3.8598,16.60929h16.77181V95.98816H114.45089Z"/>
    </g>
  </g>
</svg>
