<svg xmlns="http://www.w3.org/2000/svg" viewBox="0 0 160.61386 160.63673" fill="white">
  <title>instagram_1</title>
  <g id="Layer_2" data-name="Layer 2">
    <g id="Layer_1-2" data-name="Layer 1">
      <g>
        <path d="M160.61386,37.956v84.69514a84.20885,84.20885,0,0,1-2.01081,9.45966,40.81719,40.81719,0,0,1-39.22353,28.47379q-39.05323.12682-78.1072.007a39.87345,39.87345,0,0,1-27.01213-10.02684C4.565,142.0712-.01249,131.25482,0,118.4053.02467,93.1015-.01,67.79762.03282,42.49386a45.97256,45.97256,0,0,1,.59578-7.957C3.34916,19.27666,11.98219,8.64688,26.3137,2.8714,29.986,1.39147,34.06863.92959,37.96275,0h84.69514c1.64115.26688,3.30534.43583,4.91988.81575,16.48737,3.8796,27.13027,13.93861,31.74283,30.25951C159.95273,33.312,160.19246,35.65966,160.61386,37.956ZM9.23753,60.29283c-.03235.59692-.07881,1.05494-.07889,1.513-.00346,19.07775-.03049,38.15558.03184,57.23314a32.39214,32.39214,0,0,0,.78585,7.30008c3.61054,15.2516,16.04079,25.07333,31.75112,25.09863,25.71579.04141,51.43206.07682,77.14713-.06392a34.86183,34.86183,0,0,0,10.75635-1.70251c13.60073-4.57434,21.79863-16.38676,21.81856-30.9306q.03888-28.38147.00343-56.763c-.0001-.55135-.0464-1.10269-.06942-1.61534H110.15958a36.33136,36.33136,0,0,1-6.82,47.36321,35.91906,35.91906,0,0,1-42.6186,2.456A33.91833,33.91833,0,0,1,47.13014,93.6079c-4.50769-11.58711-3.13932-22.68738,3.43654-33.31507Zm142.15269-9.19077c0-3.80924.07749-7.4541-.03154-11.09338a28.92689,28.92689,0,0,0-.7041-5.74018c-3.56019-15.09909-15.91031-25.0404-31.44424-25.09427Q80.31553,9.03937,41.42,9.17968c-11.27636.04118-20.24811,4.80565-26.77359,14.04608C8.698,31.649,8.8474,41.25583,9.26962,51.01491c.50894.03115.96595.08345,1.423.08357q23.83911.00635,47.67812-.02978a5.07283,5.07283,0,0,0,2.44135-.77179q19.4955-11.67042,38.975-.01934a5.6724,5.6724,0,0,0,2.74788.79042q23.52522.07129,47.05075.03408ZM106.92879,80.3199a26.62616,26.62616,0,1,0-26.68063,26.61A26.76425,26.76425,0,0,0,106.92879,80.3199Z"/>
        <path d="M121.84366,48.37744c-3.293-.00042-6.58621.02213-9.879-.00681-3.25375-.02859-5.00669-1.8047-5.01453-5.07684q-.02349-9.80055.00009-19.60119c.00837-3.30891,1.8173-5.12,5.16248-5.133q9.72205-.03791,19.44434-.00013c3.39121.01347,5.19472,1.86193,5.20212,5.28178q.02085,9.64377.00009,19.28762c-.007,3.45219-1.76091,5.22188-5.19347,5.24446C128.32524,48.39462,125.08439,48.37787,121.84366,48.37744Zm-5.64738-20.51585V39.10614h11.30163V27.86159Z"/>
      </g>
    </g>
  </g>
</svg>
