<svg xmlns="http://www.w3.org/2000/svg" viewBox="0 0 160.92076 160.92076">
  <defs>
    <style>
      .cls-1 {
        fill: #fff;
      }
    </style>
  </defs>
  <title>instagram</title>
  <g id="Layer_2" data-name="Layer 2">
    <g id="Layer_1-2" data-name="Layer 1">
      <g>
        <path d="M160.92076,37.956v84.69514a84.20888,84.20888,0,0,1-2.01082,9.45966,40.81719,40.81719,0,0,1-39.22353,28.47379q-39.05323.12682-78.10719.007a39.87343,39.87343,0,0,1-27.01213-10.02684C4.87193,142.0712.2944,131.25482.30692,118.4053c.02465-25.3038-.01-50.60768.03279-75.91144a45.97257,45.97257,0,0,1,.59579-7.957C3.65605,19.27666,12.28909,8.64688,26.62059,2.8714,30.29293,1.39147,34.37553.92959,38.26965,0h84.69514c1.64114.26688,3.30534.43583,4.91988.81575,16.48736,3.8796,27.13027,13.93861,31.74282,30.25951C160.25963,33.312,160.49935,35.65966,160.92076,37.956ZM9.54443,60.29283c-.03236.59692-.07881,1.05494-.0789,1.513-.00345,19.07775-.03048,38.15558.03185,57.23314a32.39155,32.39155,0,0,0,.78584,7.30008c3.61054,15.2516,16.04079,25.07333,31.75112,25.09863,25.71579.04141,51.43206.07682,77.14714-.06392a34.86182,34.86182,0,0,0,10.75634-1.70251c13.60074-4.57434,21.79863-16.38676,21.81856-30.9306q.03888-28.38147.00344-56.763c-.00011-.55135-.0464-1.10269-.06943-1.61534H110.46648a36.33138,36.33138,0,0,1-6.82,47.36321,35.91906,35.91906,0,0,1-42.6186,2.456A33.91833,33.91833,0,0,1,47.437,93.6079c-4.5077-11.58711-3.13933-22.68738,3.43654-33.31507Zm142.15268-9.19077c0-3.80924.0775-7.4541-.03154-11.09338a28.92615,28.92615,0,0,0-.7041-5.74018c-3.56019-15.09909-15.91031-25.0404-31.44423-25.09427q-38.8948-.13486-77.79037.00545c-11.27636.04118-20.2481,4.80565-26.77358,14.04608C9.00488,31.649,9.1543,41.25583,9.57651,51.01491c.50894.03115.966.08345,1.423.08357q23.83909.00635,47.67811-.02978a5.07283,5.07283,0,0,0,2.44135-.77179q19.4955-11.67042,38.975-.01934a5.67246,5.67246,0,0,0,2.74788.79042q23.52522.07129,47.05076.03408ZM107.23569,80.3199a26.62616,26.62616,0,1,0-26.68063,26.61A26.76426,26.76426,0,0,0,107.23569,80.3199Z"/>
        <path class="cls-1" d="M38.26965,0c-3.89412.92959-7.97672,1.39147-11.64906,2.8714C12.28909,8.64688,3.65605,19.27666.9355,34.53684a45.97257,45.97257,0,0,0-.59579,7.957C.29693,67.79762.33157,93.1015.30692,118.4053c-.01252,12.84952,4.565,23.6659,14.26017,32.15945a39.87343,39.87343,0,0,0,27.01213,10.02684q39.05354.06576,78.10719-.007a40.81719,40.81719,0,0,0,39.22353-28.47379,84.20888,84.20888,0,0,0,2.01082-9.45966v38.26965H0Q0,80.46042,0,0,19.13481,0,38.26965,0Z"/>
        <path class="cls-1" d="M160.92076,37.956c-.42141-2.29631-.66113-4.644-1.29327-6.88071C155.01494,14.75436,144.372,4.69535,127.88467.81575,126.27013.43583,124.60593.26688,122.96479,0h37.956Z"/>
        <path d="M122.15055,48.37744c-3.293-.00042-6.5862.02213-9.87895-.00681-3.25375-.02859-5.00668-1.8047-5.01452-5.07684q-.02351-9.80055.00008-19.60119c.00838-3.30891,1.81731-5.12,5.16248-5.133q9.72205-.03791,19.44434-.00013c3.39122.01347,5.19472,1.86193,5.20212,5.28178q.02085,9.64377.0001,19.28762c-.00706,3.45219-1.76091,5.22188-5.19348,5.24446C128.63213,48.39462,125.39128,48.37787,122.15055,48.37744Zm-5.64738-20.51585V39.10614H127.8048V27.86159Z"/>
      </g>
    </g>
  </g>
</svg>
