<svg xmlns="http://www.w3.org/2000/svg" viewBox="0 0 322.41139 177.66401">
  <title>lake</title>
  <g id="Layer_2" data-name="Layer 2">
    <g id="Layer_1-2" data-name="Layer 1">
      <g>
        <path d="M155.06557,74.28928c12.28686-21.25527,23.7042-41.00051,35.11574-60.7491,10.462-18.10538,11.35929-18.091,22.04053.26945C227.761,40.52047,243.15922,67.316,259.04713,93.81788c2.08338,3.47522,6.43982,5.91271,10.20993,7.98021a190.31665,190.31665,0,0,0,20.56673,9.81717c7.88428,3.16313,16.16748,5.33242,24.04947,8.50048,3.15852,1.26955,5.71021,4.049,8.53813,6.14117-3.12726,1.72759-6.78753,5.484-9.28836,4.827-10.12275-2.65927-20.78664-5.1858-29.604-10.49589-19.84124-11.949-38.47719-12.27932-57.87365.43128-21.94534,14.38089-44.452,14.499-66.4239.10144-19.7682-12.95356-38.84071-12.81786-58.592.119-21.5925,14.14286-43.41621,13.4408-65.76407.49544-8.33483-4.82807-18.40813-6.58-27.46793-10.27577-2.837-1.15732-4.952-4.08434-7.39751-6.20129,2.85119-1.68535,6.085-5.22219,8.48538-4.72609a178.75044,178.75044,0,0,1,26.448,7.86651c4.90061,1.83807,9.05437,5.57469,13.83952,7.83045,15.0802,7.109,21.34367,5.28921,30.31017-8.26666,14.48666-21.90145,28.91752-43.8401,43.48572-65.68718,6.14764-9.21927,9.16736-9.07905,14.6613.46677C142.95838,52.695,148.54061,62.73224,155.06557,74.28928ZM89.48768,112.49439c28.8037-18.73765,55.29646-15.1016,82.5406,2.78164,12.53886,8.23062,27.48208,6.70525,41.14178.1467,11.52467-5.53342,22.81076-11.56387,34.86328-17.71141L201.09555,17.12758c-13.48979,23.36277-25.99588,45.13356-38.62,66.83566-5.78941,9.95252-9.20853,9.89483-14.97007-.13985-5.82325-10.14208-11.51092-20.362-17.97753-31.82313Z"/>
        <path d="M313.40422,177.664c-10.70631-4.56443-21.03837-7.553-29.83995-13.01-19.67359-12.19765-38.401-12.49676-57.80621.22552-22.308,14.62545-44.96528,14.41444-67.25566-.23831-19.01895-12.50219-37.80492-12.52861-56.82647-.05619-22.2876,14.614-44.50261,14.29929-67.45331.66854-7.98371-4.74166-17.80534-6.31047-26.58153-9.84053-2.88041-1.15861-5.111-3.93271-7.63874-5.96806,2.75542-1.78135,6.01321-5.55189,8.18051-5.00454,10.14833,2.56294,21.05605,4.60469,29.73932,9.9849,20.43877,12.664,39.49393,12.82887,59.58262-.2761,21.6283-14.10939,43.93763-13.8726,65.5227.25636,19.74132,12.92211,38.83894,12.92638,58.58437.02925,21.97651-14.35441,44.05836-13.56645,66.57744-.12974,7.717,4.60453,17.15957,6.24324,25.61115,9.72836,3.16663,1.30572,5.75724,4.00846,8.61044,6.07425C319.72943,172.35739,317.048,174.607,313.40422,177.664Z"/>
      </g>
    </g>
  </g>
</svg>
