<svg xmlns="http://www.w3.org/2000/svg" viewBox="0 0 149.33733 221.03369">
  <defs>
    <style>
      .cls-1 {
        fill: #fff;
      }
    </style>
  </defs>
  <title>location-white</title>
  <g id="Layer_2" data-name="Layer 2">
    <g id="Layer_1-2" data-name="Layer 1">
      <g>
        <path class="cls-1" d="M74.60343,206.95118c-7.72007-10.08081-15.23378-19.58809-22.42-29.33682C35.38854,154.83045,19.98,131.23368,7.71177,105.58191c-19.19141-40.12769.69372-75.809,24.05349-91.44877,25.62207-17.15443,52.79987-18.98881,79.63547-3.878,26.82431,15.10447,39.89989,39.15479,37.698,70.05533-.65226,9.15328-4.38663,18.43207-8.25882,26.94853-13.71724,30.16957-33.0761,56.84788-53.08373,83.05677C83.62942,195.72164,79.32387,200.991,74.60343,206.95118Zm-.22184-13.86034c2.643-3.294,4.765-5.8077,6.746-8.428,19.27544-25.49635,38.15357-51.292,51.31318-80.625,3.5582-7.93133,6.96564-16.5551,7.58858-25.0698,2.635-36.01785-24.288-66.28663-60.66092-69.04966C30.991,6.24337-4.00045,55.5738,13.95165,97.10062c8.83413,20.43512,20.09081,39.367,32.65571,57.58346C55.46355,167.52372,64.87189,179.98249,74.38159,193.09084Z"/>
        <path class="cls-1" d="M48.06517,183.998c-8.76926,1.984-15.73746,3.49159-22.66436,5.16968a16.83412,16.83412,0,0,0-5.99558,2.33879c-2.15119,1.58668-5.23552,3.83488-5.26081,5.83182-.025,1.97119,2.91253,5.04615,5.16011,5.78692,7.83767,2.58322,15.827,5.1879,23.96163,6.2994,25.56581,3.49322,51.146,3.31791,76.4397-2.44973a47.76787,47.76787,0,0,0,12.87746-5.11071c4.4859-2.5644,4.59192-6.62473-.04817-8.77366-6.39508-2.96167-13.33609-4.79809-20.133-6.81382-2.974-.882-6.17012-1.01476-9.29283-1.492,3.19992-7.81958,4.38255-8.82995,12.02481-6.43,7.86192,2.46888,15.89593,5.09923,22.9725,9.18633,9.62846,5.561,9.7043,14.57379-.13661,19.75786a105.86708,105.86708,0,0,1-28.37456,10.133c-27.106,5.36781-54.32979,4.90553-81.08531-2.5334a64.42988,64.42988,0,0,1-18.3726-8.54924c-7.90838-5.32088-7.50382-12.60443.24907-18.27788,8.67963-6.35162,18.86838-9.10825,29.22083-10.57608C41.869,177.17468,44.76654,181.33961,48.06517,183.998Z"/>
        <path class="cls-1" d="M74.6712,117.42074C50.94369,117.37957,32.63557,98.77624,32.603,74.6742c-.03021-22.35426,19.2579-41.36,42.07056-41.4547a42.34462,42.34462,0,0,1,42.29852,42.738A41.78357,41.78357,0,0,1,74.6712,117.42074Zm-.11386-9.13239c18.13647.1062,33.00447-14.35875,33.13709-32.2388.13743-18.52725-14.7147-33.72821-32.91392-33.68695-17.67821.04008-32.63826,14.68565-32.89537,32.20385A32.794,32.794,0,0,0,74.55734,108.28835Z"/>
      </g>
    </g>
  </g>
</svg>
