<svg xmlns="http://www.w3.org/2000/svg" viewBox="0 0 262.36009 257.08748">
  <defs>
    <style>
      .cls-1, .cls-2 {
        stroke: #000;
        stroke-miterlimit: 10;
        stroke-width: 3.43907px;
      }

      .cls-2 {
        fill: #fff;
      }
    </style>
  </defs>
  <title>makeup</title>
  <g id="Layer_2" data-name="Layer 2">
    <g id="Layer_1-2" data-name="Layer 1">
      <g>
        <path class="cls-1" d="M150.90587,87.46389a4.133,4.133,0,0,1,1.77666,5.217,39.40332,39.40332,0,0,1-3.59335,8.12982c-6.35237,10.27158-12.88009,20.4351-19.38133,30.61406-2.86306,4.48269-5.817,8.9073-8.82184,13.499,3.03185,1.3613,2.78043,3.93764,2.15657,6.32942a25.62847,25.62847,0,0,1-4.96028,9.59918,101.23267,101.23267,0,0,0-5.80536,8.99354c-5.55777,8.708-11.07986,17.43922-16.693,26.11142q-12.70614,19.63071-25.52105,39.191c-4.05136,6.19991-8.12427,12.387-12.30294,18.501a4.24406,4.24406,0,0,1-2.66876,1.50934c-5.9562.83938-11.44931-.96454-16.799-3.29717A88.75058,88.75058,0,0,1,8.17472,230.45553c-2.73976-2.9732-5.27492-6.13892-6.34651-10.13447a4.21084,4.21084,0,0,1,.44865-3.03087q13.97475-21.60448,28.1087-43.10578c7.29526-11.068,14.70412-22.06137,22.09982-33.06279,3.22576-4.7985,6.56248-9.5222,9.81515-14.30277,1.9285-2.83443,3.646-5.82514,5.72894-8.53783,1.71958-2.23948,3.99853-4.32629,6.965-4.14508,2.64677.16171,3.49988-1.30617,4.66417-3.03871Q93.625,90.31481,107.72687,69.62387c2.33483-3.40751,5.40283-5.96712,9.91644-6.10379.57273-.01734,1.25383-.82019,1.65722-1.41374,6.50005-9.56429,12.7778-19.28572,19.48579-28.70089,6.99077-9.812,14.737-19.02761,24.28026-26.52453,2.23086-1.75251,4.81516-3.05143,7.21159-4.59816,1.55715-1.00505,2.7175-.45158,3.93561.68739,5.49278,5.13606,7.8465,11.62157,8.33717,18.94941.66914,9.993-2.3374,19.11414-7.38169,27.44841-7.5297,12.44075-15.57505,24.56944-23.40291,36.82969C151.523,86.57884,151.25833,86.94648,150.90587,87.46389ZM4.29341,221.2666c1.888,2.25582,3.73284,4.79044,5.9077,7.00025a97.56937,97.56937,0,0,0,29.30657,20.3018c4.19339,1.916,8.498,3.60367,13.249,3.61907a2.61053,2.61053,0,0,0,2.51559-1.3726c3.274-5.15445,6.62731-10.25869,9.96849-15.37029,6.78757-10.38419,13.5419-20.79046,20.391-31.13395,6.59843-9.96489,13.29868-19.86237,19.95489-29.789,2.58775-3.85922,5.17741-7.71713,7.82934-11.6698-10.77393-.95741-19.75123-5.8148-28.28015-11.63648-8.55613-5.84028-16.3825-12.45289-21.23734-21.74056ZM150.37292,88.50732c-2.18181,2.37884-4.8402,1.64442-7.20169.70646-9.015-3.58069-16.975-8.7734-23.05131-16.45734-1.69465-2.143-3.97224-4.28828-2.66238-8.03266a11.74469,11.74469,0,0,0-2.96933,1.17408,22.88282,22.88282,0,0,0-4.30756,4.1394c-2.26318,3.16517-4.18565,6.57162-6.31364,9.83618Q91.11125,99.442,78.31628,118.98241c10.72836,11.63236,22.85954,21.251,38.76788,25.13447.06676-.0854.19377-.22726.29807-.38423q14.23413-21.42713,28.44694-42.86837c1.85342-2.80726,3.54375-5.72971,5.16944-8.67621C151.67714,90.95826,151.83933,89.55292,150.37292,88.50732ZM119.94426,68.59615c3.09255,2.709,6.21735,5.86423,9.75753,8.451,5.54774,4.05365,11.17265,8.14309,18.24267,9.22961a2.18764,2.18764,0,0,0,1.8047-.73185q9.47626-15.10128,18.80646-30.29386c1.53524-2.50576,2.79908-5.17778,4.24609-7.88256-6.05764-1.20883-10.23061-4.2617-12.21741-10.00413a25.80315,25.80315,0,0,1-.85152-12.32763c.79086-5.48137,3.573-10.10615,6.62094-14.58926,1.02519-1.50793,2.03368-3.0272,3.04982-4.54129a2.91425,2.91425,0,0,0-1.87893.78516c-5.10276,5.07633-10.55,9.86449-15.18865,15.337-9.38122,11.06758-17.22519,23.282-25.11738,35.437C124.89207,61.04839,122.54493,64.61808,119.94426,68.59615ZM76.40892,115.956a3.89163,3.89163,0,0,0-.75669.10959c-4.65276,2.04569-6.99879,6.17776-9.24637,10.357a3.1399,3.1399,0,0,0,.70058,3.85731c2.06725,2.239,3.91968,4.68347,6.05756,6.84886A94.81176,94.81176,0,0,0,96.13148,153.7253c4.9772,2.67525,10.14381,4.94069,15.84349,5.7204a3.72274,3.72274,0,0,0,3.91306-1.58306,91.74967,91.74967,0,0,0,4.74291-8.68948c.39679-.82368.06042-2.00053.06042-3.27512-.57135.34068-.79331.39807-.88708.54008-1.69857,2.57225-1.77162,2.8022-4.78438,1.79207a94.06057,94.06057,0,0,1-13.54761-5.25365c-9.78287-5.08109-18.41956-11.64532-24.64051-21.00843C75.53079,120.01,74.94607,118.19405,76.40892,115.956ZM173.01505,3.00882c-3.02339,5.60265-6.16032,10.82849-8.7192,16.3235a22.207,22.207,0,0,0-.93863,17.07977,10.7239,10.7239,0,0,0,9.81714,7.60664,2.22625,2.22625,0,0,0,1.69361-.97733c5.02378-9.5505,6.4015-19.55467,3.338-29.99154A25.82431,25.82431,0,0,0,173.01505,3.00882Z"/>
        <path class="cls-1" d="M212.109,208.11671c-2.47935-.35915-7.16721-.96294-11.82215-1.75909a11.10508,11.10508,0,0,1-3.93311-1.60608,3.50184,3.50184,0,0,1-1.21672-2.20435q-3.22774-18.63129-6.33066-37.2841-4.12666-25.09793-8.11132-50.21915c-.88617-5.58232-1.5902-11.19393-2.34319-16.7968a29.30379,29.30379,0,0,1-.39424-4.8025A3.76863,3.76863,0,0,1,179.0762,91.303c3.2448-3.46136,7.43479-5.47845,11.77848-7.032,12.82725-4.5878,26.02913-6.62225,39.6592-5.14271,3.43617.373,6.83518.96428,9.82207,2.86823a2.61612,2.61612,0,0,1,1.16765,1.38757c1.46665,7.17633,2.92848,14.35508,4.25282,21.55873q3.31043,18.00679,6.44561,36.04554c2.23217,12.9928,4.32656,26.00925,6.4811,39.0154.616,3.71848,1.191,7.44447,1.86813,11.15179a4.21057,4.21057,0,0,1-1.16741,3.89767c-3.03962,3.33706-7.02621,5.09987-11.07622,6.68438C237.40681,206.00235,226.00521,207.67693,212.109,208.11671ZM180.72479,96.17659c6.182,35.90447,12.359,71.77993,18.57009,107.85309,2.53758.26442,5.23671.69293,7.94873.80264a109.63306,109.63306,0,0,0,33.50617-4.30809c4.94458-1.35384,9.81014-2.93191,14.15014-5.85677a3.77864,3.77864,0,0,0,1.74991-4.41271q-1.98779-10.92882-3.78655-21.89191-3.07905-18.53772-6.07261-37.08956-2.71493-16.92594-5.29941-33.87272c-.5484-3.55419-.9935-7.12433-1.51146-10.87225C227.47522,98.73669,193.55426,102.7147,180.72479,96.17659Zm.26008-2.10075c1.08058.28851,1.819.514,2.57023.682,9.431,2.10816,18.86149,1.46858,28.25312-.19027,7.232-1.27742,14.40022-2.90626,20.79316-6.75626,1.99128-1.19918,3.75352-2.77868,5.91249-4.4038-.77413-.26615-.94406-.34466-1.12263-.38306a69.23674,69.23674,0,0,0-22.50141-.63594,95.10335,95.10335,0,0,0-23.64515,5.45147C187.556,89.26221,183.96125,90.85618,180.98487,94.07584Z"/>
        <path class="cls-2" d="M173.01505,3.00882a25.82431,25.82431,0,0,1,5.19094,10.041c3.06348,10.43687,1.68576,20.441-3.338,29.99154a2.22625,2.22625,0,0,1-1.69361.97733,10.7239,10.7239,0,0,1-9.81714-7.60664,22.207,22.207,0,0,1,.93863-17.07977C166.85473,13.83731,169.99166,8.61147,173.01505,3.00882Z"/>
      </g>
    </g>
  </g>
</svg>
