<svg xmlns="http://www.w3.org/2000/svg" viewBox="0 0 204.31501 204.28898">
  <title>phone</title>
  <g id="Layer_2" data-name="Layer 2">
    <g id="Layer_1-2" data-name="Layer 1">
      <path d="M149.18266,204.289c-12.00511-.22252-23.26843-3.56409-34.1602-8.30073-20.06756-8.727-37.57925-21.31415-53.66968-35.97787-17.71866-16.14761-33.00991-34.30622-45.01993-55.11492-6.87979-11.92-12.4108-24.41173-15.01029-38.0216C-.35067,58.11358-.85271,49.29213,2.32693,40.77a37.04361,37.04361,0,0,1,5.39312-9.69444C14.56149,22.30119,21.726,13.77886,28.75916,5.15389a13.84022,13.84022,0,0,1,21.6082.0728Q65.84367,24.52042,81.33105,43.80527c5.50351,6.852,4.99076,14.41211-1.41551,20.51872-2.21078,2.10738-4.38631,4.25516-6.66442,6.28756a8.87717,8.87717,0,0,0-3.24253,7.57881c.29486,3.34983.54294,6.874,1.76208,9.94486,8.45476,21.29679,23.35879,36.2176,44.90834,44.26369,3.634,1.35682,7.53056,2.12229,11.38644,1.14373a13.53218,13.53218,0,0,0,5.26535-2.77236c2.67511-2.28523,5.0375-4.93613,7.53473-7.43007a13.76321,13.76321,0,0,1,18.36307-1.3198q20.35677,16.10092,40.494,32.4783c6.17926,5.04063,6.10019,15.41227-.10116,20.51991q-14.2196,11.71173-28.73311,23.0648C164.55518,203.02688,156.98766,204.20856,149.18266,204.289Zm-24.38928-56.91819a45.83226,45.83226,0,0,1-17.27266-3.96042c-15.67755-6.79563-28.03442-17.66816-37.94586-31.39923-6.46421-8.95536-11.40012-18.67856-12.44-29.87709-.75537-8.13433,1.2268-15.4804,7.56466-21.193,2.11693-1.90807,4.11321-3.95006,6.23186-5.85613,1.31057-1.17906,1.43958-2.19092.27979-3.62795Q56.18842,32.84318,41.25692,14.15576c-1.61458-2.01176-1.82165-2.0035-3.44714.01821-6.59077,8.19736-13.135,16.43269-19.788,24.57926a19.2467,19.2467,0,0,0-4.56925,10.6849,57.26891,57.26891,0,0,0,.114,11.7542c1.41,11.10068,5.61169,21.31794,10.69967,31.18515,8.71246,16.89625,20.09191,31.8812,33.094,45.66418,15.84134,16.79275,33.45607,31.36035,53.99533,42.121,11.11112,5.82119,22.65645,10.48167,35.3616,11.38117,6.20484.43928,12.27617-.1189,17.38894-4.16678,8.672-6.86579,17.24026-13.86249,25.89973-20.74427,1.45363-1.15521,1.30089-1.89729-.03675-2.96665q-19.16064-15.318-38.26037-30.712a1.44139,1.44139,0,0,0-2.37035.17122c-1.96233,2.15959-4.06187,4.19563-6.00058,6.37535C138.46147,144.98327,132.2864,147.36739,124.79338,147.37079Z"/>
    </g>
  </g>
</svg>
