<svg xmlns="http://www.w3.org/2000/svg" viewBox="0 0 317.35941 317.29884">
  <title>restaurant</title>
  <g id="Layer_2" data-name="Layer 2">
    <g id="Layer_1-2" data-name="Layer 1">
      <g>
        <path d="M167.93241,0c6.01685.80358,12.06721,1.41266,18.045,2.443,33.274,5.73518,61.75666,20.8031,85.46112,44.73354a155.87083,155.87083,0,0,1,43.04756,81.70787c15.98128,82.34413-36.26843,163.898-117.78424,183.81749A158.88315,158.88315,0,0,1,9.36572,212.52359,150.94621,150.94621,0,0,1,.54055,170.90226,25.685,25.685,0,0,0,0,167.93241v-18.5903c.19065-1.09269.42063-2.1802.56534-3.27894.75374-5.72285,1.19712-11.50342,2.27324-17.16416A154.89358,154.89358,0,0,1,45.83407,47.17847C69.53883,23.247,98.022,8.17863,131.29672,2.44306,137.27462,1.41265,143.32512.8036,149.34211,0ZM306.933,158.937c.48138-81.64834-65.7119-148.10973-147.99594-148.59543C77.28924,9.85959,10.82726,76.05338,10.34153,158.33742,9.85956,239.98521,76.053,306.44693,158.33737,306.933,239.985,307.41529,306.44791,241.2205,306.933,158.937Z"/>
        <path d="M163.56706,185.57854c-3.15625,1.88452-5.30519,3.612-7.75644,4.54565-6.64528,2.53113-13.10862,1.601-18.10459-3.43682C120.70514,169.54389,103.59,152.485,87.28757,134.68916a63.847,63.847,0,0,1-16.23134-34.53257c-1.47645-10.39726-.31478-20.34072,5.00886-29.61072,3.28123-5.71358,6.48928-6.22,11.14637-1.56282q72.49245,72.49335,144.97219,144.99939c2.98946,2.99109,6.072,5.92373,8.76164,9.173a20.50194,20.50194,0,0,1-1.48987,27.34922c-7.35969,7.40435-19.45148,8.28821-27.32024,1.54635-5.23957-4.48918-9.99156-9.553-14.8995-14.42242-7.69548-7.63509-15.32032-15.34135-23.00955-22.98281-5.73728-5.70172-7.63209-12.28756-4.93674-20.06637a3.13909,3.13909,0,0,0-.10335-2.50588C167.35908,189.73451,165.31559,187.56462,163.56706,185.57854ZM83.06251,79.57615a36.3106,36.3106,0,0,0-1.56729,21.26732c2.95951,13.90512,10.632,25.2283,20.24281,35.2219,13.37836,13.9112,27.15639,27.43825,40.77523,41.11788,4.911,4.93291,7.60376,5.11952,13.13225.99512a11.25389,11.25389,0,0,1,14.98581.75769c1.82317,1.67425,3.49668,3.51025,5.28117,5.22813,3.87763,3.73294,5.15717,8.10769,3.24814,13.22666-1.52155,4.07988-.44261,7.28865,2.62493,10.313,11.54055,11.37809,22.95124,22.88785,34.41505,34.34382a23.61717,23.61717,0,0,0,2.03735,1.89743,10.08391,10.08391,0,0,0,10.48577,1.54857,9.78949,9.78949,0,0,0,6.39039-8.42564c.53867-4.21926-1.57447-7.23364-4.39851-10.05507Q158.09033,154.45452,85.51265,81.8484C84.811,81.14683,84.05791,80.49662,83.06251,79.57615Z"/>
        <path d="M83.67631,256.00853c-5.92135-.2629-12.38287-4.21722-15.91936-12.05064-3.4708-7.688-2.61128-15.2988,3.03145-21.68772C75.97386,216.399,81.72184,211.0226,87.255,205.46109q11.36012-11.41821,22.77935-22.77745a14.21569,14.21569,0,0,1,2.84218-2.3542,4.98635,4.98635,0,0,1,6.67111,6.89136,17.07686,17.07686,0,0,1-2.6113,3.03488q-18.37914,18.41674-36.803,36.78875c-3.166,3.14636-4.82145,6.71765-3.622,11.15577a10.33658,10.33658,0,0,0,16.36779,5.45952,28.74452,28.74452,0,0,0,2.72263-2.523q18.95861-18.93246,37.917-37.86507a13.95571,13.95571,0,0,1,3.12417-2.4796,4.47751,4.47751,0,0,1,5.63991,1.09836,4.526,4.526,0,0,1,.86364,5.69027,12.52628,12.52628,0,0,1-2.11777,2.63722q-19.46673,19.51994-38.96392,39.00949C97.724,253.57708,92.647,256.18732,83.67631,256.00853Z"/>
        <path d="M207.04417,130.8096c7.15187,1.52873,12.882-2.0632,18.15446-7.52433,9.46713-9.806,19.22585-19.33063,28.878-28.95752a17.00256,17.00256,0,0,1,2.80471-2.41193,4.55392,4.55392,0,0,1,5.96866.66577,4.62,4.62,0,0,1,.88058,6.18874,16.03659,16.03659,0,0,1-2.41369,2.80211c-10.06567,10.08968-20.21507,20.09686-30.20146,30.26423-6.4396,6.55631-13.988,10.26073-23.25951,9.35973-4.73969-.46059-8.36535.71689-11.23839,4.58165a29.77635,29.77635,0,0,1-4.5962,4.58934,5.07076,5.07076,0,0,1-7.24758-.1359,4.97937,4.97937,0,0,1,.06625-7.01211c3.53861-3.75585,7.18557-7.42431,10.99839-10.89742a7.95724,7.95724,0,0,1,4.25845-1.45228A64.91625,64.91625,0,0,1,207.04417,130.8096Z"/>
        <path d="M231.62078,64.33559a26.83688,26.83688,0,0,1-2.88909,4.00782c-10.02206,10.13287-20.03868,20.27421-30.24,30.22537-4.779,4.6618-7.83,9.86888-7.088,16.708.74052,6.82457-1.41068,12.251-6.97815,16.41429-2.04789,1.53141-3.62456,3.677-5.56291,5.37492-2.40255,2.10459-5.2414,2.02032-7.22679-.00014a5.10859,5.10859,0,0,1,.13211-7.24872c2.29841-2.51158,4.70062-4.9422,7.21112-7.24036a5.82927,5.82927,0,0,0,2.02819-4.85521c-.16239-6.772.30186-13.4595,4.33382-19.27956a42.7233,42.7233,0,0,1,4.64553-5.77725q15.91522-16.07,31.97117-32.00051a9.76171,9.76171,0,0,1,2.4434-1.863C227.69224,57.16366,231.69276,59.74994,231.62078,64.33559Z"/>
        <path d="M246.26313,81.11942c-1.14195,1.91184-1.72229,3.50462-2.80542,4.60042q-15.64483,15.828-31.44835,31.49889c-2.74772,2.73063-5.687,2.88211-7.90529.64589-2.18123-2.19887-2.0182-5.196.67781-7.91028q15.68382-15.78987,31.46679-31.48116c1.70438-1.69946,3.83569-2.885,6.093-1.55013C243.84172,77.81018,244.84092,79.54428,246.26313,81.11942Z"/>
      </g>
    </g>
  </g>
</svg>
