<svg xmlns="http://www.w3.org/2000/svg" viewBox="0 0 289.91057 242.42008">
  <title>rooms</title>
  <g id="Layer_2" data-name="Layer 2">
    <g id="Layer_1-2" data-name="Layer 1">
      <g>
        <path d="M123.73764,232.43434h45.984c0-3.08329,0-5.70886,0-8.33444q-.00021-39.1567.01289-78.3134c.00172-2.18588-.377-4.62945.46267-6.48093.75627-1.66766,2.96371-3.73154,4.49429-3.70216,1.584.0304,3.65924,2.09423,4.52649,3.77963.80744,1.56919.3733,3.8107.37433,5.75632q.02091,39.52225.00775,79.04448c-.00007,2.62142,0,5.24286,0,8.27433h93.255v-80.93c-23.44323,0-46.97516.1223-70.50193-.171a11.7298,11.7298,0,0,1-7.73394-3.81833q-41.413-48.33374-82.45848-96.98243c-2.97827-3.5108-5.97229-7.00826-9.32024-10.93565-18.83172,22.19709-37.26792,43.927-55.703,65.65789q-18.222,21.47964-36.467,42.93961c-2.30091,2.69182-4.781,6.68654-8.87382,2.94457-3.78431-3.45989-.78359-6.53167,1.6343-9.38344q46.606-54.96909,93.19925-109.949c5.13744-6.05634,8.375-6.56359,12.47939.21807,8.61109,14.22823,20.44073,17.61454,36.56171,16.91,31.38344-1.37159,62.8692-.40185,96.5779-.40185-1.3979-7.73537-3.19557-14.7469-3.80726-21.86042a171.45636,171.45636,0,0,1-.04586-23.34287c.06036-1.18529,3.113-3.12773,4.82206-3.17224,11.2137-.29206,22.43864-.12624,33.65955-.18084,4.45223-.02166,6.32642,2.51406,5.98053,6.48013-.71894,8.24382,1.74066,16.52923-2.98869,24.82554-2.39186,4.19588-.418,10.8805-.418,16.33509,10.433,1.99565,10.41886,1.99564,10.41321,12.59749-.01441,27.08024-.09241,54.16088.04517,81.24039.02706,5.32664-.77,9.38215-6.96476,9.07661,0,28.16327-.14747,55.93473.09862,83.70274.0655,7.38872-3.83027,8.16453-9.739,8.15331q-91.47892-.17376-182.95839-.08483c-18.54006-.0019-37.08283-.18711-55.61869.09053-6.2761.094-8.7397-2.0506-8.69984-8.43958.18877-30.25055-.03039-60.50411.28477-90.75256.02749-2.63871,2.611-7.23332,4.47462-7.48711,4.97438-.67738,5.19082,3.80214,5.19,7.61412q-.00859,40.25369-.017,80.50734c-.00055,2.65317-.00008,5.30634-.00008,8.49793h45.1561c0-2.87528.00131-5.69737-.0002-8.51944-.0103-19.27265.11024-38.54681-.11369-57.817-.06534-5.62287,1.84582-7.96759,7.62844-7.76605,9.01581.31421,18.05824.33615,27.07372.0263,6.1942-.21289,8.1249,2.6092,8.08838,8.35847C123.65519,188.33781,123.73764,210.03739,123.73764,232.43434Zm156.28829-91.64641V58.56816H131.89444c2.51421,3.07258,4.27136,5.2854,6.09675,7.44042q22.9361,27.07823,45.898,54.13462c5.67991,6.68936,10.20883,15.93263,17.45022,19.28276,7.46352,3.4529,17.59018,1.28209,26.553,1.33327C245.13864,140.85772,262.38588,140.78793,280.02593,140.78793ZM113.21337,168.38668H90.75024V232.4865h22.43823V209.37564c-4.10778-.92337-7.80644-1.08456-10.63418-2.73654-1.05811-.61817-.91869-6.3863.11518-6.89841,2.98821-1.48024,6.70879-1.482,10.5439-2.1325ZM251.60769,48.19246h17.47217V30.132H251.60769Zm21.38059-38.221H247.8316v9.72613h25.15668Z"/>
        <path d="M145.88991,119.53279c.00083.73046.04931,1.46468-.00687,2.19079q-.66243,8.56146-1.35877,17.12028c-7.451.00878-14.90269.0836-22.35294.01156-12.57985-.12161-25.15971-.50894-37.73774-.44212-6.73089.03576-13.461,1.07026-20.1845.99861-1.52259-.01622-4.26241-2.7062-4.32142-4.24669-.39118-10.21135-.20447-20.44484-.20622-30.67112-.00078-4.50793,2.9722-4.93094,6.45679-4.76639,13.99637.6609,27.99149,1.70262,41.99237,1.79425,10.10019.0661,20.2209-1.00229,30.30889-1.84625,5.73713-.48,8.08788,1.564,7.4898,7.44768C145.55285,111.22024,145.88908,115.3936,145.88991,119.53279Zm-60.9803,11.36748h35.60745v-22.2725H84.90961Zm42.92473-24.49013v26.64847H139.238V106.41014ZM66.87992,106.348v26.68258h11.0604V106.348Z"/>
        <path d="M251.57616,179.63943c0,10.224.2471,18.72555-.21034,27.18905-.09053,1.67431-2.83979,4.52495-4.44689,4.585-11.1731.41727-22.37762.47091-33.54717.02163-1.78842-.07194-4.791-3.14113-4.9367-5.00422a156.67885,156.67885,0,0,1-.01012-21.85909c.10655-1.71787,2.48992-4.67614,3.89332-4.71639C225.12862,179.48783,237.95389,179.63943,251.57616,179.63943Zm-36.48485,6.66771v18.50452h29.73457V186.30714Z"/>
        <path d="M44.761,195.32444c.01391-15.80337.01391-15.80337,15.94269-15.79986,12.76024.00281,12.76022.00281,12.75956,12.48563-.0001,1.95036.01433,3.90082-.00212,5.851-.13623,16.14213,1.538,13.59388-13.44006,13.78943C44.74834,211.85012,44.74656,211.71415,44.761,195.32444Zm6.51617,9.59223H66.51788V186.7169H51.27715Z"/>
        <path d="M162.06091,196.07669c.06855,15.65154.06855,15.65152-15.30519,15.59046-13.45228-.05342-13.51416-.0538-13.415-15.291.12774-19.62193-2.37731-16.60027,16.44508-16.83425,14.51113-.1804,12.13677.062,12.26959,12.14784C162.0715,193.1519,162.05761,194.61436,162.06091,196.07669Zm-21.62769-9.65206v18.49253h14.87019V186.42463Z"/>
      </g>
    </g>
  </g>
</svg>
