<svg xmlns="http://www.w3.org/2000/svg" viewBox="0 0 256.79663 228.41375">
  <title>saloon</title>
  <g id="Layer_2" data-name="Layer 2">
    <g id="Layer_1-2" data-name="Layer 1">
      <g>
        <path d="M23.22578,167.99113C4.9039,156.19482-.5284,139.14782.03963,118.60623.788,91.54112.09138,64.43822.40507,37.35606c.0368-3.17674,2.5326-6.325,3.88845-9.48646,1.69156,3.20732,4.80722,6.39511,4.8515,9.625.38695,28.225.80407,56.47246.07233,84.68369-.83021,32.00685,20.97426,46.342,53.41494,42.25772,2.096-.26392,3.69712-4.45859,7.15324-8.92405-8.9721,0-14.65086.29556-20.28942-.05517C32.2553,154.38438,19.48066,141.8241,18.721,124.592c-.55389-12.56476-.48747-25.18537-.04179-37.75784.46477-13.111,10.27262-22.59471,22.53458-22.71278,12.06477-.11617,22.03064,9.38091,22.91649,22.45579.48646,7.18.087,14.42.087,22.50386l10.29759.77824c.64848-1.458,1.45089-2.42432,1.45234-3.39182C75.987,93.27638,83.15683,90.684,95.12891,91.2351c21.31825.98127,42.71416.2757,64.07758.2759,18.08507.00017,18.08507.00036,22.32193,17.6945l9.92663.70534a29.328,29.328,0,0,0,.97666-4.80778c.14773-6.48225-.27454-13.00564.298-19.444,1.09638-12.3301,11.03543-21.51789,22.629-21.53772a22.41881,22.41881,0,0,1,22.645,21.33885,352.02164,352.02164,0,0,1-.11591,41.17308c-1.115,16.02119-14.05087,27.73347-30.32585,28.80593-5.65275.37249-11.35071.05934-19.1207,2.57827,2.20072,2.24234,4.2007,6.18523,6.63225,6.47229,37.1869,4.39,53.95323-15.48066,52.62426-44.37909-1.208-26.26725-.47962-52.6376-.03792-78.953.07477-4.454,3.0143-8.85993,4.63027-13.28807,1.43306,4.61107,4.03381,9.204,4.10564,13.83621.40209,25.93508-.34209,51.89423.36556,77.81622.55127,20.19349-5.27048,36.719-23.1554,48.46523,6.90381,16.70133,13.93428,33.06517,20.29538,49.68521,1.15876,3.02762-.41551,7.10126-.72815,10.692-2.479-2.36556-5.99018-4.27649-7.26565-7.17218-7.04239-15.9883-13.5395-32.21677-20.26388-48.46038l-33.4851,1.841c1.15192,7.78186,2.06079,14.92561,3.29025,22.01373,2.39194,13.7903,2.46646,13.78192-11.99545,13.94308-2.61472.02913-5.23.00414-8.6719.00414-.233,4.32143.13131,8.13836-.82239,11.59124-.65157,2.359-3.142,4.21014-4.81029,6.28832-1.35594-2.00408-3.45166-3.85846-3.8946-6.04733-.66556-3.289-.17324-6.81227-.17324-11.03426H92.29223c-.17856,3.54849.20367,7.3563-.742,10.79942-.64737,2.35708-3.14418,4.20626-4.81419,6.28248-1.35416-2.00626-3.44685-3.8633-3.88947-6.05374-.66477-3.28974-.173-6.81319-.173-9.94049-1.02737-.74408-1.60991-1.52772-2.24739-1.57531C58.94013,209.24046,58.93637,209.25012,62.555,187.74c.68924-4.09694,1.4125-8.18816,2.2546-13.06045-11.19928-.68937-21.67865-1.33441-33.45435-2.05924-5.66676,13.5159-11.66037,27.79879-17.64072,42.08725-1.02924,2.45909-1.47839,5.39756-3.1329,7.29885-2.09411,2.40644-5.14766,3.978-7.78741,5.90959-.17218-3.02116-1.35233-6.43509-.353-8.99975C8.93225,202.25813,15.89719,185.78471,23.22578,167.99113Zm147.103-67.333c-17.90658,0-34.6552-.14343-51.39986.05216-10.55759.12332-24.02472-2.99694-30.799,2.26887-6.11009,4.74951-5.13511,18.8863-6.85442,28.95655-3.88467,22.753-7.50355,45.55146-11.30278,68.77289h116.957C181.38937,167.31856,175.98154,134.72646,170.32875,100.65817ZM73.80092,120.22844c-18.63225-2.79461-18.6313-2.79461-18.64081-20.82222-.002-3.80867.2149-7.63436-.06711-11.42257-.6526-8.76617-5.11331-14.703-14.23729-14.55017-8.55418.14331-12.9779,5.74908-13.10543,14.218-.18347,12.18508-.3985,24.38771.04738,36.55915A22.78886,22.78886,0,0,0,49.606,146.35754c6.36331.39741,12.77188.07018,19.88132.07018C71.02316,137.09947,72.4112,128.66906,73.80092,120.22844ZM187.442,146.41981c7.33206,0,13.802.366,20.21518-.08133,11.05558-.7712,20.61215-9.40569,21.2141-20.291.73455-13.2831.54068-26.65266.02358-39.95666-.30926-7.95728-5.89223-13.71353-13.323-12.27683-5.0949.98507-10.09613,6.65433-13.34027,11.4473-1.96652,2.90541-.5631,8.13268-.56937,12.317-.02866,19.11833-.01539,19.11834-18.72284,22.97537C184.40882,128.9951,185.88193,137.45769,187.442,146.41981Z"/>
        <path d="M18.53765,26.84018C18.58416,10.57745,27.77043-.12087,41.58348.001,55.52029.124,64.40934,11.27127,64.30609,28.49615c-.09366,15.62453-8.966,26.04778-22.38689,26.30028C28.16226,55.05526,18.49,43.49061,18.53765,26.84018Zm36.622.34C55.11537,15.13338,50.35175,8.987,41.1909,9.15662,32.105,9.32488,27.641,15.43439,27.68424,27.64219c.04266,12.04406,4.79648,18.17964,13.96581,18.02516C50.72716,45.51443,55.20442,39.3875,55.1596,27.18015Z"/>
        <path d="M192.50583,28.0582c.011-17.1203,9.19088-28.24253,23.15248-28.05137,13.91291.19051,22.6491,10.72564,22.6167,27.274-.03136,16.02054-9.3385,27.30932-22.68507,27.51507C201.78892,55.0086,192.49539,44.24417,192.50583,28.0582Zm9.1472-.8253q-.0517,18.2787,13.55659,18.4362c9.17321.12387,13.88464-5.99561,13.91878-18.07857.03465-12.2645-4.42463-18.32726-13.55882-18.43437C206.39055,9.04852,201.68719,15.1579,201.653,27.2329Z"/>
      </g>
    </g>
  </g>
</svg>
