<svg xmlns="http://www.w3.org/2000/svg" viewBox="0 0 228.11599 254.50913">
  <defs>
    <style>
      .cls-1, .cls-2 {
        stroke: #000;
        stroke-miterlimit: 10;
        stroke-width: 4px;
      }

      .cls-2 {
        fill: #fff;
      }
    </style>
  </defs>
  <title>sheep_1</title>
  <g id="Layer_2" data-name="Layer 2">
    <g id="Layer_1-2" data-name="Layer 1">
      <g>
        <path class="cls-1" d="M160.30324,214.44328c-5.06517,5.37062-10.37593,8.97967-16.85413,10.59878-10.04915,2.5116-19.21748.40223-27.61946-5.46735-.9676-.676-1.67522-1.48593-3.06428-.42372-12.89939,9.864-31.31923,9.85329-44.75713-4.39422-.08951,1.03427-.20761,1.77528-.20933,2.51655-.01493,6.41337.01373,12.82688-.01463,19.24016-.03928,8.88629-6.9962,16.0715-15.44476,15.99505-8.33779-.07547-15.15425-7.2199-15.17734-15.98931-.03112-11.81892.03631-23.63842-.07876-35.4563a5.06679,5.06679,0,0,0-1.5889-3.38334C26.471,189.94883,22.53,180.16275,23.52393,168.40966c.15594-1.844-.4236-2.517-1.935-3.25933C9.15476,159.04317,2.28269,149.16348,2.0472,135.17238a31.18165,31.18165,0,0,1,6.402-19.20751c1.00654-1.37335,1.18978-2.21871.10663-3.73916C-3.78881,94.897,1.82866,72.73784,20.96524,63.24446c1.93766-.96124,2.74026-1.76422,2.54494-4.21971C21.8414,38.04615,38.622,21.55692,59.56068,23.52252c1.98156.186,2.65-.4597,3.43889-2.056C69.195,8.931,79.21626,2.13969,93.32469,2.055A30.7728,30.7728,0,0,1,112,8.3834c1.48771,1.09643,2.36375,1.23081,3.96911.085,17.04906-12.16821,39.21419-6.63962,48.66413,12.14282,1.11929,2.22464,2.16855,3.02822,4.86642,2.88446,21.1015-1.12446,36.88414,15.09034,35.06824,35.9455-.18577,2.13361.5401,2.81922,2.21242,3.62246,9.34249,4.48731,15.66432,11.66068,18.27193,21.74971,2.56383,9.91963.39722,19.06337-5.46617,27.3374a2.68664,2.68664,0,0,0-.00682,3.75737c12.26711,17.48422,6.66227,39.4566-12.52041,48.955-2.0271,1.00371-2.64539,1.92636-2.46943,4.27589.85744,11.44818-3.11159,21.01773-11.99717,28.38567a4.2356,4.2356,0,0,0-1.68694,3.71015c.06239,11.63543.04436,23.27136.03011,34.9071-.0112,9.13757-6.82769,16.38914-15.35024,16.36667-8.5215-.02245-15.26553-7.27116-15.27981-16.4416C160.29458,229.11509,160.30324,222.16308,160.30324,214.44328ZM27.35829,172.1179C27.11563,188.146,41.84762,202.248,58.37491,200.48827c1.98325-.21115,4.45389-1.1302,5.83305-.29383,1.48021.89766,1.95952,3.4707,2.83915,5.32988a28.27328,28.27328,0,0,0,44.2281,9.41965c1.70878-1.45711,3.03967-2.258,5.156-.39622,15.51347,13.64749,38.563,7.66281,45.6692-11.85164.89934-2.46968,2.09515-3.22279,4.68131-2.6824a26.43119,26.43119,0,0,0,23.14618-5.7129c8.69242-7.17733,12.18483-16.47541,10.0718-27.64772-.46189-2.44234.21712-3.5684,2.54638-4.53935a36.566,36.566,0,0,0,9.06168-4.99314,28.083,28.083,0,0,0,3.42512-40.19451c-1.42332-1.68269-2.4496-3.05909-.52954-5.15814,14.22759-15.5541,6.75795-40.03053-12.22164-45.95342-2.27163-.70889-2.52466-1.99344-2.3579-4.13809.29527-3.79807.80591-7.76355.06848-11.42581C196.84945,34.64254,182.213,25.13079,166.4605,28.10607c-2.09906.39646-3.42547.07679-4.15453-2.25066C156.26768,6.57878,131.65515-.48246,116.37232,13.5306c-1.7179,1.57517-3.08818,1.446-4.7367-.06093C96.30155-.54728,71.7273,6.79146,65.86279,25.70162c-.73773,2.37879-2.04311,2.8473-4.32515,2.39306A28.28,28.28,0,0,0,28.09941,61.49607c.50119,2.49438-.26042,3.6203-2.60868,4.46378C6.06322,72.93806-.08325,95.78876,13.28091,111.37767c1.7368,2.02592,1.70262,3.43575-.06065,5.39278a26.11564,26.11564,0,0,0-6.991,17.17238c-.34639,13.23969,6.84163,23.77644,19.33979,28.22283,2.45032.87174,3.07493,2.12983,2.49879,4.52216A48.50986,48.50986,0,0,0,27.35829,172.1179ZM186.6831,201.77419a86.9128,86.9128,0,0,1-8.78951,2.36742,51.44779,51.44779,0,0,1-8.72517.49566c-3.19731-.03033-4.56758.96925-4.5904,4.26328-.06716,9.69329-.10444,19.38855.02156,29.08073a10.471,10.471,0,0,0,9.34127,10.20439c5.833.75423,10.84472-2.29522,12.24675-7.721a24.47555,24.47555,0,0,0,.47565-5.9701C186.705,223.61958,186.6831,212.74435,186.6831,201.77419Zm-145.234-.35186c0,12.66892-.15152,24.9218.06937,37.16793.09794,5.4297,4.89484,9.52094,10.43032,9.65781,6.03308.14915,11.16547-3.53192,11.388-9.16552.404-10.2291.254-20.48524.08656-30.726-.024-1.468-.26174-4.06488-2.86883-3.80587A35.89438,35.89438,0,0,1,41.44911,201.42233Z"/>
        <path class="cls-1" d="M169.1326,113.59569c2.5339,35.68058-28.01512,60.48948-56.12416,59.81669-28.20365-.67506-56.08711-25.20782-54.01775-59.47073-3.081.6412-6.12235,1.53932-9.22408,1.86855-8.355.88682-15.69316-1.64676-22.0653-7.10642-1.9086-1.63528-1.83166-3.01336-.05313-4.76653C35.27953,96.41479,42.81551,88.79566,50.41331,81.239a3.17621,3.17621,0,0,0,1.15558-3.51968C46.44118,57.24963,61.98561,39.57322,82.94836,41.82139a3.18971,3.18971,0,0,0,2.494-1.29835c13.25186-22.01576,44.01944-22.06141,57.25142.09917a3.17407,3.17407,0,0,0,2.54776,1.20082A28.68742,28.68742,0,0,1,176.638,77.89067a4.02219,4.02219,0,0,0,1.00875,3.19663c7.43332,7.58984,14.98276,15.06581,22.48646,22.58686,2.45325,2.45889,2.45407,3.2122-.28952,5.458-8.01891,6.564-17.0727,8.38415-27.05031,5.68965C171.657,114.51494,170.55612,114.07653,169.1326,113.59569ZM54.56328,70.03921A21.75872,21.75872,0,0,0,58.776,83.67342c7.50709,10.49276,19.40283,13.56186,31.04539,8.02779,2.0257-.96287,3.44767-.878,4.52065,1.24008a9.6851,9.6851,0,0,0,1.31633,1.75146,24.1891,24.1891,0,0,0,37.415-.763c2.61148-3.369,2.61116-3.36831,6.3128-1.65924.33146.153.66688.299,1.00693.43173a24.36092,24.36092,0,0,0,27.43476-6.94168,24.76632,24.76632,0,0,0,2.33893-28.23389,23.89991,23.89991,0,0,0-25.66612-11.19495c-2.50125.5151-3.7452-.11058-4.94081-2.4102C134.2363,33.68222,125.66829,28.28192,114.117,28.261c-11.66725-.02117-20.30081,5.42069-25.65087,15.77367-1.15084,2.227-2.36047,2.76666-4.73141,2.30246A24.13778,24.13778,0,0,0,54.56328,70.03921Zm-22.7209,36.38635c6.48676,6.36808,17.89029,7.42869,26.936,2.412,3.43651-1.90586,4.48984-1.23821,4.63732,2.656.21083,5.5668-.07806,11.25958,1.00054,16.66841,5.40085,27.08355,29.20606,43.85394,56.82449,40.42066,22.04221-2.7401,40.25357-20.887,42.89062-43.01132.58228-4.88517.40031-9.86142.57087-14.7957.10238-2.96095,1.41262-3.65582,4.07337-2.29761a31.97968,31.97968,0,0,0,5.748,2.53767c8.12382,2.276,15.47048.716,21.65284-4.32217L173.823,84.27629a28.29556,28.29556,0,0,1-16.11079,12.8994,29.24087,29.24087,0,0,1-20.72-1.31585c-13.24843,15.76034-33.72373,14.779-45.86894.15545C74.01152,101.158,64.54978,98.118,54.01569,84.23206Z"/>
        <path class="cls-1" d="M94.171,120.49637a9.21813,9.21813,0,0,1-8.70615,8.859,9.243,9.243,0,0,1-8.71943-8.56647c-.09619-4.47658,4.20589-8.85419,8.70618-8.859A9.24262,9.24262,0,0,1,94.171,120.49637Zm-8.95143,4.61377a4.2095,4.2095,0,0,0,4.702-4.17015,4.15875,4.15875,0,0,0-4.09115-4.7467c-2.87665-.1682-4.74637,1.4916-4.82764,4.28565A4.15055,4.15055,0,0,0,85.21962,125.11014Z"/>
        <path class="cls-1" d="M142.74546,129.35587c-4.36922.0723-8.677-4.05993-8.8222-8.46265-.14768-4.47823,4.07309-8.87684,8.60048-8.96289,4.47184-.085,8.83954,4.239,8.8239,8.73558A9.24876,9.24876,0,0,1,142.74546,129.35587Zm.01028-13.18038a4.19929,4.19929,0,0,0-4.5885,4.288,4.15047,4.15047,0,0,0,4.21312,4.634c2.86848.11094,4.68137-1.58588,4.7101-4.40852A4.14016,4.14016,0,0,0,142.75574,116.17549Z"/>
        <path class="cls-1" d="M113.69806,160.15172a11.205,11.205,0,0,1-8.46045-4.6161c-.90774-1.20188-1.48435-2.682.13-3.47534a3.473,3.473,0,0,1,3.08509.92836c3.57789,4.00981,7.60721,4.00787,11.19146-.00433a3.45651,3.45651,0,0,1,3.085-.90538c1.59727.79679,1.00745,2.24823.13528,3.4859A11.80943,11.80943,0,0,1,113.69806,160.15172Z"/>
        <path class="cls-2" d="M85.21962,125.11014a4.15055,4.15055,0,0,1-4.21678-4.6312c.08127-2.794,1.951-4.45385,4.82764-4.28565a4.15875,4.15875,0,0,1,4.09115,4.7467A4.2095,4.2095,0,0,1,85.21962,125.11014Z"/>
        <path class="cls-2" d="M142.75574,116.17549a4.14016,4.14016,0,0,1,4.33472,4.51352c-.02873,2.82264-1.84162,4.51946-4.7101,4.40852a4.15047,4.15047,0,0,1-4.21312-4.634A4.19929,4.19929,0,0,1,142.75574,116.17549Z"/>
      </g>
    </g>
  </g>
</svg>
