<svg xmlns="http://www.w3.org/2000/svg" viewBox="0 0 277.53444 218.8273">
  <title>story</title>
  <g id="Layer_2" data-name="Layer 2">
    <g id="Layer_1-2" data-name="Layer 1">
      <g>
        <path d="M172.91831,186.35056c1.464,0,2.65675,0,3.84954,0,13.17663.00015,26.35332.02226,39.5298-.021,2.22923-.00733,3.559.5321,3.67116,3.12034.63726,14.71137-9.45085,26.89349-23.98645,28.73688a66.6371,66.6371,0,0,1-8.29067.58047c-37.23391.03752-74.46824.12439-111.7016-.02167-15.82417-.06209-28.4712-11.02351-31.00273-26.63612a18.87175,18.87175,0,0,1-.0487-2.99088q-.00223-69.92592-.0013-139.85185V45.09433c-3.00141,2.07515-5.39661,4.15382-8.13784,5.556C21.98816,58.22649,5.31968,50.43039,1.10708,34.25678c-3.04687-11.698.25763-21.34014,9.14432-29.11395A20.18432,20.18432,0,0,1,23.60626.10886C63.83473.03355,104.06511-.13438,144.29088.2031c10.51477.08822,18.46938,5.9205,23.91137,14.92658,3.326,5.50424,4.41713,11.58988,4.41607,17.93028q-.00271,16.1713-.00048,32.34261l0,3.12883c6.23491-3.81622,11.99613-7.79406,18.16042-10.996,6.98678-3.62913,14.49937-6.00386,22.55649-5.31176,4.11968.35387,8.2144,1.08855,12.29385,1.80276,9.73315,1.704,18.86387-.34574,27.72348-4.24875,5.14891-2.26832,10.19358-4.828,15.47806-6.71712,4.49249-1.606,8.3063,1.73577,8.65826,6.5354.4775,6.51172-2.85224,11.68727-5.74545,16.91866a79.31529,79.31529,0,0,1-16.537,20.89367c-13.61282,12.1603-29.24733,20.47911-47.21816,24.17345-4.32688.88948-8.85012,1.21542-12.95341,2.70725-5.79957,2.1085-9.15552,7.39593-13.17019,11.77308-2.25953,2.46358-4.8524,4.61887-7.16937,7.03367-.87393.91085-1.97838,2.15743-1.98657,3.25835-.12031,16.17021-.07456,32.34169-.05705,48.51283A10.39757,10.39757,0,0,0,172.91831,186.35056Zm-9.38195-48.69674c-1.23737-.25557-2.10565-.41379-2.96365-.61578-3.59523-.84636-4.22355-.56543-5.3091,3.06978-1.552,5.19739-2.94789,10.44125-4.43826,15.6573-.82285,2.87986-3.25617,4.39375-5.808,3.67465-2.066-.58218-3.56327-3.41839-2.81379-5.86761,2.19071-7.15888,4.5968-14.25265,6.72425-21.4295a22.57751,22.57751,0,0,0,.74791-6.43459c-.01441-3.49926-.511-6.99837-.48926-10.49558.07583-12.2259,4.6306-22.88755,11.67511-32.64908a12.56865,12.56865,0,0,0,2.76359-7.88187c-.2-14.76876-.08546-29.54175-.09651-44.31322a13.76373,13.76373,0,0,0-.19-2.97081c-2.91466-13.02176-11.11524-18.5913-22.88949-18.72742-30.63711-.35418-61.281-.126-91.92219-.08821a6.71675,6.71675,0,0,0-2.13046.54753c2.22,4.94958,4.96407,9.32985,6.10242,14.09381,1.14112,4.77558.8835,9.93379.8893,14.92471q.08053,69.31687.05821,138.63392c.00468,4.85949.23994,9.72912.6089,14.5757C54.735,200.28591,64.82866,209.59089,73.772,209.71c9.80266.13053,18.34705-8.8446,18.48462-19.41646.05121-3.93618.05122-3.94159,4.00136-3.942,21.15939-.002,42.31912-.05861,63.47782.06233,3.08641.01762,3.94009-.99108,3.85966-3.959-.18651-6.88172-.05919-13.772-.05915-20.65874C163.53639,153.82314,163.53636,145.85012,163.53636,137.65382Zm-5.728-25.55392,1.20172.33434a9.79341,9.79341,0,0,0,.91582-1.06258c4.41483-6.85119,9.41085-13.29136,15.82316-18.31394A104.74778,104.74778,0,0,1,192.0527,82.37133c7.737-3.99889,16.23356-5.99889,24.87353-7.24016a4.50137,4.50137,0,1,1,1.78454,8.82331c-1.44686.29612-2.92743.42332-4.38682.66313a67.06819,67.06819,0,0,0-34.70247,16.78149c-7.74551,6.997-12.9788,15.90447-18.10765,24.84612-.24878.43373-.09812,1.09662-.1944,2.612,2.89786-1.09948,5.74561-1.47776,7.60735-3.03494A101.2251,101.2251,0,0,0,179.096,115.51051c4.15133-4.63462,8.59723-8.85916,14.73157-10.565,2.9155-.81076,6.06953-.71815,9.05552-1.32831,25.58746-5.2287,46.27632-17.88247,60.40284-40.27755,1.99043-3.15548,3.47226-6.63178,5.18954-9.95959l-.79213-.61251c-2.551,1.24349-5.11976,2.45178-7.64983,3.73633A60.814,60.814,0,0,1,216.61262,61.581a22.98937,22.98937,0,0,0-10.08278-.04876,60.88677,60.88677,0,0,0-20.548,8.88283,65.73732,65.73732,0,0,0-25.01848,30.52707C159.50886,104.49659,158.83844,108.37182,157.80836,112.0999Zm52.50341,83.33221-3.85882,0q-51.05509,0-102.11018.00119a8.08479,8.08479,0,0,0-2.37856.078,2.94273,2.94273,0,0,0-1.707,1.32293c-1.80943,4.19483-3.49556,8.44286-5.30368,12.87677h3.07235c31.0423,0,62.08485-.06542,93.12664.06027a20.31507,20.31507,0,0,0,14.31047-5.3831A14.23368,14.23368,0,0,0,210.31177,195.43211ZM22.77543,9.38532a6.14174,6.14174,0,0,0-1.30206-.05882C14.52648,11.08871,8.63209,18.76878,8.939,27.9591c.20084,6.01531,4.87978,13.62342,11.57924,16.09663,5.48369,2.02441,12.14346.04829,16.81129-4.99971,4.01592-4.343,5.742-11.95021,2.26247-15.98472-3.51059-4.07051-7.82567-6.60526-13.27548-6.69185-2.52927-.04019-3.72655-.94068-3.554-3.52274C22.83914,11.71,22.77543,10.55382,22.77543,9.38532Z"/>
        <path d="M110.10256,76.23394c-10.88042-.00014-21.76228.08834-32.63984-.08812-1.79132-.02906-4.16392-.71887-5.21854-1.98049-2.11557-2.5308.10347-6.46817,3.59579-6.97358a16.84048,16.84048,0,0,1,2.39291-.0381q31.74288-.00189,63.48576.0085a13.78377,13.78377,0,0,1,3.25849.24279c2.94744.72623,4.08227,2.31134,3.65292,5.14084-.39711,2.61716-2.33452,3.62841-4.68875,3.65471-7.58541.08474-15.17233.03293-22.75868.03352Q115.6426,76.23445,110.10256,76.23394Z"/>
        <path d="M102.07281,105.584q-13.00887-.00016-26.01773-.00662c-2.71119-.0055-4.69775-1.867-4.66274-4.27943.03525-2.4286,1.99368-4.189,4.75444-4.19061q25.86819-.01536,51.73635-.02162c2.34165-.00417,4.3834.76512,4.80114,3.06968a6.67071,6.67071,0,0,1-1.40138,4.41949c-.51123.72583-2.09014.95845-3.19269.96792C119.41826,105.61722,110.74539,105.58412,102.07281,105.584Z"/>
        <path d="M96.47635,126.45267c6.38418-.00024,12.76841-.01311,19.15254.005,3.42009.00967,5.40764,1.52849,5.47345,4.111.07932,3.11274-1.72385,4.9198-5.35807,4.93757-12.8678.06288-25.73669.09348-38.60393-.01371-4.52671-.0377-7.08334-3.35471-5.04493-6.59242.83418-1.325,3.21367-2.26771,4.9336-2.33923C83.50177,126.29176,89.9924,126.45293,96.47635,126.45267Z"/>
        <path d="M96.17139,156.40169c6.67938,0,13.35881-.0125,20.03813.00512,3.47976.00917,4.86295,1.2066,4.89322,4.14589.02711,2.63276-1.83684,4.32221-4.87207,4.32519q-19.88861.01944-39.77723-.00726c-4.01494-.01015-6.25008-3.039-4.35847-6.17705a5.61343,5.61343,0,0,1,4.04168-2.1909C82.80839,156.27668,89.492,156.40169,96.17139,156.40169Z"/>
        <path d="M123.85188,53.47235c-6.67124.00008-13.3425.01087-20.0137-.00452-3.2738-.00755-4.37647-1.07416-4.39275-4.15677-.0159-3.0123,1.17428-4.29473,4.31949-4.30339q20.31228-.05588,40.62476.00055a4.1751,4.1751,0,0,1,4.26631,4.31229c-.03013,2.85177-1.29474,4.13668-4.193,4.14523C137.59266,53.486,130.72225,53.47226,123.85188,53.47235Z"/>
      </g>
    </g>
  </g>
</svg>
