<svg xmlns="http://www.w3.org/2000/svg" viewBox="0 0 308.03138 244.1853">
  <title>why</title>
  <g id="Layer_2" data-name="Layer 2">
    <g id="Layer_1-2" data-name="Layer 1">
      <g>
        <path d="M69.7034,215.0875c-3.04074,14.258-5.45,16.20883-19.39352,16.27014a18.14468,18.14468,0,0,0-3.70125.035c-19.22691,4.19028-28.2466-5.9401-34.73834-22.55318-10.61149-27.156-14.94068-54.592-9.54641-83.43914,1.16343-6.22172,3.58975-9.0579,10.32512-8.808,12.34477.458,24.7273.41238,37.0776.03571,9.06-.27633,16.95443.70676,18.83979,9.294,17.9655,1.97766,35.017,1.83139,50.82658,6.1899,14.49569,3.99627,27.61889,12.92118,41.4204,19.5206,3.43021,1.64022,7.09755,3.64478,10.73733,3.82353,10.48224.51478,21.00611.17763,31.51361.18338,17.7206.00969,22.12555,3.14013,27.91023,20.53912,15.6198-5.41609,31.17029-11.05312,46.90173-16.12947,5.47623-1.76712,11.66137-3.64876,17.04037-2.711,4.72828.82428,10.9064,4.66453,12.53512,8.73641,1.61617,4.04029-.3807,10.88966-3.11686,14.93544-2.91777,4.31429-8.24909,7.35476-13.05993,9.97083-26.57207,14.44953-53.18868,28.82725-80.02461,42.77833-20.502,10.6583-41.75023,13.92923-64.38564,6.12253C121.51478,231.13858,95.80953,223.42591,69.7034,215.0875Zm-.94264-77.91023c0,21.63654-.21741,42.01143.27878,62.36894.06112,2.50752,3.47215,6.27684,6.10728,7.16967,25.40039,8.60584,51.0498,16.47609,76.4566,25.06379,16.12463,5.4503,32.21666,4.85584,46.90866-2.44491,31.74806-15.77633,62.88527-32.79913,93.9853-49.83606,3.17453-1.739,4.3996-7.03664,6.5293-10.68294-4.25759-.67609-8.50683-1.41608-12.77993-1.97308a6.646,6.646,0,0,0-2.63693.77362c-17.77271,6.149-35.62482,12.08289-53.26906,18.5811-5.92867,2.18351-11.22347,8.10926-16.9864,8.36921-24.0399,1.08446-48.14819.74949-72.22962.61439-1.74923-.00982-3.48411-2.57825-5.22567-3.9571,1.84974-1.56847,3.47431-3.75393,5.61178-4.5339,2.18822-.79852,4.87884-.24,7.34957-.24136q29.18928-.01619,58.37854-.01582c7.43489.00107,13.30771-2.85162,13.26933-10.8812-.0379-7.92856-5.605-10.86154-13.2479-10.7493-12.97021.19048-25.95514.32876-38.912-.12984a18.64356,18.64356,0,0,1-10.71415-3.85175C132.009,139.06022,101.81321,135.34487,68.76076,137.17727ZM37.63032,223.28172V126.2989H12.23548c-7.89323,24.95331.22724,73.76373,15.695,92.8093C29.71037,221.29978,33.7211,221.6796,37.63032,223.28172ZM47.92256,221.341c9.44965,2.6673,11.95313-.683,11.82485-8.97174-.39637-25.61211-.11833-51.23432-.15818-76.85252-.016-10.31584-.40584-10.5592-11.66667-8.43743Z"/>
        <path d="M188.09366,97.208a66.23308,66.23308,0,0,0-.0433-7.40593c-.80539-7.12728,1.62772-10.10851,9.36964-11.22351,19.3664-2.78916,31.42461-18.41025,30.044-37.02626A34.84353,34.84353,0,0,0,194.09252,9.18576c-18.377-.64761-33.08971,12.46439-36.19046,31.56484-.43983,2.70934-3.68486,4.9633-5.63154,7.428-1.08032-3.15063-3.30933-6.3973-3.05524-9.43636,1.7-20.33279,19.731-37.09178,40.93642-38.6373,20.90624-1.52371,41.16,13.71662,45.63492,34.33884,4.59666,21.18333-6.21205,43.63325-26.68524,50.08536-10.75,3.38784-12.73678,8.47-12.10153,18.11692.29307,4.45046,3.44335,12.748-4.1484,12.85346-7.54688.10477-3.89113-8.07539-4.707-12.74233A32.62117,32.62117,0,0,1,188.09366,97.208Z"/>
        <path d="M200.976,128.71834c-4.02752,2.58162-6.321,5.14571-8.64139,5.17029-1.66054.0176-4.6871-3.38189-4.66764-5.2311.01989-1.89062,3.04983-5.29374,4.69295-5.2529C194.6917,123.4626,196.96018,126.06637,200.976,128.71834Z"/>
      </g>
    </g>
  </g>
</svg>
