<svg xmlns="http://www.w3.org/2000/svg" viewBox="0 0 243.05444 178.32328">
  <title>yt</title>
  <g id="Layer_2" data-name="Layer 2">
    <g id="Layer_1-2" data-name="Layer 1">
      <g>
        <path d="M0,44.08731C.84306,40.488,1.37049,36.77853,2.58109,33.30736,9.724,12.82655,27.49353.11685,49.35607.072q72.1173-.14785,144.23508-.00285c21.867.0408,39.77327,12.67228,46.73141,33.21454a52.29559,52.29559,0,0,1,2.56177,16.03833c.25332,26.56723.16683,53.13832.1,79.70778-.05959,23.70324-15.46161,42.9534-38.57217,48.12688a52.42511,52.42511,0,0,1-11.29594,1.106q-71.643.10734-143.2862.03454c-22.13935-.01884-40.049-12.61282-47.24914-33.25459C1.3702,141.5717.843,137.86231,0,134.26309Zm121.67554-33.2151q-17.08323,0-34.16647.00154c-13.44491.00878-26.89669-.23776-40.33313.10742-19.78243.5082-36.01053,16.6969-36.2165,36.43827-.29207,27.99387-.133,55.99354.0251,83.98965A33.34236,33.34236,0,0,0,12.913,141.82436c5.43973,15.86051,19.50949,25.63664,36.63826,25.64523q71.89192.036,143.7839.00554c1.02778-.00007,2.05666-.02042,3.08318-.06974,19.36378-.93027,35.42111-16.96882,35.61973-36.35713.28675-27.994.13923-55.99358-.0209-83.98966a33.84879,33.84879,0,0,0-1.96588-10.64671c-5.41862-15.679-19.43318-25.48539-36.24656-25.52478C169.76178,10.83078,145.71862,10.87277,121.67554,10.87221Z"/>
        <path d="M86.51419,43.551l79.016,45.62336-79.016,45.62629Zm10.87388,72.49517,46.54549-26.87588C128.18191,80.08041,112.90936,71.267,97.38807,62.31Z"/>
      </g>
    </g>
  </g>
</svg>
